<svg width="53" height="48" viewBox="0 0 53 48" fill="none" xmlns="http://www.w3.org/2000/svg">
    <g clip-path="url(#w87l49lfea)" fill="#56828F">
        <path d="M25.948 8.53a3.96 3.96 0 0 1-2.027-.55 3.373 3.373 0 0 1-1.344-1.465 2.947 2.947 0 0 1-.207-1.887c.14-.633.488-1.215.998-1.672a3.798 3.798 0 0 1 1.868-.893 4.048 4.048 0 0 1 2.108.186 3.592 3.592 0 0 1 1.638 1.202c.4.537.614 1.168.614 1.814 0 .866-.384 1.697-1.068 2.309-.684.612-1.612.956-2.58.956zm0-5.197c-.427 0-.844.113-1.2.326a1.996 1.996 0 0 0-.794.867 1.744 1.744 0 0 0-.123 1.116c.083.375.289.719.59.99.302.27.687.453 1.106.528.419.074.853.036 1.247-.11.395-.146.732-.394.969-.712.237-.317.364-.69.364-1.073a1.847 1.847 0 0 0-.636-1.363 2.306 2.306 0 0 0-1.523-.569zM29.824 22.076h-7.777a.791.791 0 0 1-.527-.195.633.633 0 0 1-.218-.471c0-.177.079-.346.218-.471a.791.791 0 0 1 .527-.196h7.777c.197 0 .387.07.526.196.14.125.218.294.218.47a.633.633 0 0 1-.218.472.791.791 0 0 1-.526.195z"/>
        <path d="M21.782 22.076c-.505.032-1.01.032-1.515 0a2.198 2.198 0 0 1-1.231-.676 1.798 1.798 0 0 1-.473-1.222v-6.733c.002-1.046.434-2.055 1.214-2.835.78-.779 1.853-1.274 3.015-1.39a29.524 29.524 0 0 1 3.168-.102c1.05-.022 2.1.011 3.144.101 1.162.117 2.235.612 3.015 1.391.78.78 1.212 1.789 1.214 2.835v6.7c.005.443-.162.875-.473 1.221-.31.346-.746.585-1.231.677-.593.032-1.188.032-1.78 0a.791.791 0 0 1-.527-.196.633.633 0 0 1-.218-.471v-6.779a.66.66 0 0 1 .251-.422.811.811 0 0 1 .5-.168c.184 0 .362.06.5.168a.66.66 0 0 1 .251.422v6.101h.783a.63.63 0 0 0 .332-.22.522.522 0 0 0 .11-.356v-6.677c-.001-.717-.296-1.409-.829-1.944a3.409 3.409 0 0 0-2.062-.96 30.308 30.308 0 0 0-2.98-.079 30.574 30.574 0 0 0-3.004.08 3.409 3.409 0 0 0-2.063.96 2.759 2.759 0 0 0-.828 1.943v6.7a.534.534 0 0 0 .123.37.65.65 0 0 0 .357.217h.744v-6.1a.66.66 0 0 1 .252-.423.81.81 0 0 1 .5-.168.81.81 0 0 1 .5.168.66.66 0 0 1 .25.422v6.779a.633.633 0 0 1-.217.471.791.791 0 0 1-.527.195h-.265zM13.993 45a.823.823 0 0 1-.29-.047.758.758 0 0 1-.245-.144.668.668 0 0 1-.165-.218.607.607 0 0 1-.058-.258v-3.186a.66.66 0 0 1 .251-.422.811.811 0 0 1 .5-.168c.184 0 .362.06.5.168a.66.66 0 0 1 .251.422v3.187c0 .087-.019.174-.056.255a.666.666 0 0 1-.162.216.755.755 0 0 1-.241.144.821.821 0 0 1-.285.051zM10.685 34.538c-.708 0-1.4-.188-1.989-.541a3.3 3.3 0 0 1-1.315-1.44 2.886 2.886 0 0 1-.197-1.853c.141-.62.485-1.19.988-1.636a3.725 3.725 0 0 1 1.84-.867 3.962 3.962 0 0 1 2.067.196 3.507 3.507 0 0 1 1.595 1.192c.388.53.591 1.152.584 1.786-.01.842-.391 1.646-1.06 2.239-.669.592-1.572.924-2.513.924zm0-5.05a2.245 2.245 0 0 0-1.143.315 1.913 1.913 0 0 0-.757.829 1.673 1.673 0 0 0-.119 1.065 1.8 1.8 0 0 0 .56.946c.285.26.65.437 1.05.512.398.074.813.041 1.191-.094.378-.135.703-.368.935-.667.231-.3.359-.655.366-1.02a1.681 1.681 0 0 0-.148-.721 1.85 1.85 0 0 0-.45-.614 2.1 2.1 0 0 0-.68-.41 2.284 2.284 0 0 0-.805-.141zM7.39 45a.81.81 0 0 1-.287-.048.745.745 0 0 1-.243-.144.654.654 0 0 1-.161-.218.595.595 0 0 1-.054-.257v-3.186c0-.176.079-.346.219-.47a.792.792 0 0 1 .526-.196c.198 0 .387.07.527.195s.218.295.218.471v3.186a.595.595 0 0 1-.053.257.655.655 0 0 1-.161.218.745.745 0 0 1-.244.144.81.81 0 0 1-.287.048zM29.243 45a.822.822 0 0 1-.285-.05.757.757 0 0 1-.242-.145.667.667 0 0 1-.161-.216.607.607 0 0 1-.057-.256v-3.186c0-.176.078-.346.218-.471a.791.791 0 0 1 .527-.195.81.81 0 0 1 .287.047.745.745 0 0 1 .243.145c.07.062.125.136.162.218a.596.596 0 0 1 .053.256v3.186a.596.596 0 0 1-.053.257.654.654 0 0 1-.162.218.745.745 0 0 1-.243.144.81.81 0 0 1-.287.048zM25.948 34.538c-.708 0-1.4-.188-1.989-.541a3.3 3.3 0 0 1-1.315-1.44 2.886 2.886 0 0 1-.197-1.853c.14-.62.485-1.19.988-1.636a3.725 3.725 0 0 1 1.84-.867 3.962 3.962 0 0 1 2.067.196 3.506 3.506 0 0 1 1.595 1.192c.388.53.591 1.152.584 1.786-.01.842-.391 1.646-1.06 2.239-.669.592-1.572.924-2.513.924zm0-5.05c-.408 0-.807.108-1.146.31-.34.202-.605.49-.763.826-.158.337-.2.707-.124 1.066.077.358.27.689.556.949.286.26.651.44 1.05.515.4.075.814.043 1.193-.092.38-.135.705-.367.937-.667.232-.3.36-.655.367-1.02a1.671 1.671 0 0 0-.143-.722 1.836 1.836 0 0 0-.446-.614 2.083 2.083 0 0 0-.678-.41 2.269 2.269 0 0 0-.803-.141zM22.653 45a.81.81 0 0 1-.287-.048.745.745 0 0 1-.244-.144.654.654 0 0 1-.16-.218.596.596 0 0 1-.054-.257v-3.186a.596.596 0 0 1 .053-.256.654.654 0 0 1 .161-.218.745.745 0 0 1 .244-.145.81.81 0 0 1 .287-.047c.197 0 .387.07.527.195s.218.295.218.471v3.186c0 .088-.02.175-.057.256a.667.667 0 0 1-.161.216.756.756 0 0 1-.242.144.82.82 0 0 1-.285.051zM44.506 45a.81.81 0 0 1-.287-.048.745.745 0 0 1-.244-.144.654.654 0 0 1-.16-.218.592.592 0 0 1-.054-.257v-3.186c0-.176.078-.346.218-.47a.792.792 0 0 1 .527-.196c.197 0 .387.07.526.195.14.125.219.295.219.471v3.186a.595.595 0 0 1-.054.257.654.654 0 0 1-.16.218.745.745 0 0 1-.244.144.81.81 0 0 1-.287.048zM41.186 34.538a3.875 3.875 0 0 1-1.986-.547 3.298 3.298 0 0 1-1.31-1.443 2.885 2.885 0 0 1-.191-1.85c.142-.62.487-1.19.991-1.634a3.727 3.727 0 0 1 1.84-.864 3.961 3.961 0 0 1 2.065.198 3.507 3.507 0 0 1 1.593 1.192c.388.53.59 1.151.583 1.785-.01.844-.393 1.65-1.064 2.243-.672.592-1.578.923-2.521.92zm0-5.05a2.243 2.243 0 0 0-1.14.32 1.91 1.91 0 0 0-.751.832 1.672 1.672 0 0 0-.114 1.064c.08.357.275.685.562.943.287.258.652.435 1.05.508.399.074.813.04 1.19-.095.378-.136.702-.368.933-.668a1.681 1.681 0 0 0 .217-1.742 1.848 1.848 0 0 0-.453-.616 2.1 2.1 0 0 0-.685-.409 2.284 2.284 0 0 0-.81-.137zM37.903 45a.821.821 0 0 1-.285-.05.755.755 0 0 1-.242-.145.666.666 0 0 1-.161-.216.606.606 0 0 1-.057-.255v-3.187a.66.66 0 0 1 .251-.422.811.811 0 0 1 .5-.168c.184 0 .362.06.5.168a.66.66 0 0 1 .252.422v3.187c0 .088-.02.176-.058.257a.668.668 0 0 1-.165.218.759.759 0 0 1-.246.144.824.824 0 0 1-.289.047z"/>
        <path d="M47.334 25.624H4.574c-.334 0-.655-.119-.892-.33-.236-.213-.37-.5-.37-.8v-2.632c0-.3.134-.587.37-.799.237-.212.558-.33.893-.33h42.758c.335 0 .656.118.893.33.237.212.37.5.37.799v2.644a1.075 1.075 0 0 1-.374.791c-.237.21-.556.327-.889.327zM4.802 24.28h42.292v-2.204H4.802v2.204z"/>
        <path d="M5.055 30.73a.791.791 0 0 1-.527-.195.633.633 0 0 1-.218-.47v-5.108c0-.176.078-.346.218-.47a.791.791 0 0 1 .527-.196c.197 0 .387.07.526.195.14.125.218.295.218.471v5.107a.633.633 0 0 1-.218.471.791.791 0 0 1-.526.196zM46.841 30.73a.822.822 0 0 1-.285-.05.757.757 0 0 1-.241-.145.667.667 0 0 1-.162-.216.606.606 0 0 1-.057-.255v-5.107c0-.176.079-.346.219-.47a.791.791 0 0 1 .526-.196c.198 0 .387.07.527.195s.218.295.218.471v5.107a.633.633 0 0 1-.218.471.791.791 0 0 1-.527.196zM17.2 45H4.233a.821.821 0 0 1-.285-.05.756.756 0 0 1-.242-.145.667.667 0 0 1-.161-.216.606.606 0 0 1-.057-.255v-5.05c.002-1.023.424-2.01 1.185-2.771.76-.763 1.808-1.248 2.943-1.365a.835.835 0 0 1 .292.023.785.785 0 0 1 .26.12c.076.056.14.124.187.2a.622.622 0 0 1 .063.511.65.65 0 0 1-.135.232.736.736 0 0 1-.224.169.813.813 0 0 1-.278.078 3.28 3.28 0 0 0-1.994.924 2.651 2.651 0 0 0-.796 1.878v4.373h11.361v-4.373a2.652 2.652 0 0 0-.8-1.881 3.28 3.28 0 0 0-2.002-.92.814.814 0 0 1-.278-.082.733.733 0 0 1-.223-.17.647.647 0 0 1-.133-.233.604.604 0 0 1 .068-.51.699.699 0 0 1 .19-.2.835.835 0 0 1 .553-.14c1.14.11 2.196.593 2.962 1.356.767.763 1.191 1.754 1.191 2.78v5.04a.616.616 0 0 1-.188.462.767.767 0 0 1-.494.215zM32.349 45H19.497a.806.806 0 0 1-.287-.048.743.743 0 0 1-.244-.144.655.655 0 0 1-.16-.218.596.596 0 0 1-.054-.257v-5.05c-.001-1.021.418-2.007 1.177-2.77.759-.762 1.805-1.248 2.939-1.365a.835.835 0 0 1 .552.14.7.7 0 0 1 .19.199.604.604 0 0 1 .068.51.647.647 0 0 1-.133.233.732.732 0 0 1-.222.17.813.813 0 0 1-.279.081 3.292 3.292 0 0 0-1.998.923 2.664 2.664 0 0 0-.804 1.88v4.372h11.362v-4.373a2.664 2.664 0 0 0-.805-1.879 3.292 3.292 0 0 0-1.998-.923.813.813 0 0 1-.278-.08.735.735 0 0 1-.223-.17.622.622 0 0 1 .125-.944.815.815 0 0 1 .553-.139c1.143.106 2.201.588 2.97 1.351.77.764 1.196 1.756 1.196 2.784v5.04a.594.594 0 0 1-.053.27.66.66 0 0 1-.174.229.752.752 0 0 1-.263.144.813.813 0 0 1-.306.034zM47.662 45H34.76a.806.806 0 0 1-.288-.048.743.743 0 0 1-.243-.144.655.655 0 0 1-.161-.218.593.593 0 0 1-.053-.257v-5.05c-.002-1.021.417-2.007 1.176-2.77.76-.762 1.805-1.248 2.94-1.365a.835.835 0 0 1 .552.14.7.7 0 0 1 .19.199.604.604 0 0 1 .068.51.647.647 0 0 1-.133.233.732.732 0 0 1-.223.17.813.813 0 0 1-.278.081 3.281 3.281 0 0 0-2.001.92 2.653 2.653 0 0 0-.802 1.882v4.373h11.362v-4.373a2.651 2.651 0 0 0-.796-1.878 3.28 3.28 0 0 0-1.994-.924.812.812 0 0 1-.278-.078.735.735 0 0 1-.224-.169.649.649 0 0 1-.135-.232.603.603 0 0 1 .063-.51.696.696 0 0 1 .188-.2.784.784 0 0 1 .26-.121.835.835 0 0 1 .29-.023c1.142.109 2.199.591 2.968 1.354.769.763 1.196 1.754 1.199 2.781v5.04a.606.606 0 0 1-.053.258.665.665 0 0 1-.161.22.756.756 0 0 1-.243.147.82.82 0 0 1-.288.052z"/>
    </g>
    <defs>
        <clipPath id="w87l49lfea">
            <path fill="#fff" transform="translate(3.313 2)" d="M0 0h45.271v43H0z"/>
        </clipPath>
    </defs>
</svg>
