<svg width="53" height="48" viewBox="0 0 53 48" fill="none" xmlns="http://www.w3.org/2000/svg">
    <g clip-path="url(#i3je0f0aja)" fill="#56828F">
        <path d="M36.717 42.85c-1.962.003-3.88-.635-5.513-1.834-1.633-1.2-2.905-2.905-3.657-4.901a11.954 11.954 0 0 1-.567-6.313c.382-2.12 1.326-4.067 2.714-5.595 1.387-1.528 3.155-2.569 5.08-2.99a9.07 9.07 0 0 1 5.73.625c1.813.828 3.361 2.23 4.45 4.028 1.089 1.798 1.668 3.912 1.666 6.073-.003 2.892-1.048 5.664-2.904 7.709-1.857 2.045-4.374 3.195-7 3.199zm0-20.539c-1.73 0-3.42.565-4.858 1.623-1.438 1.059-2.559 2.563-3.22 4.323a10.542 10.542 0 0 0-.498 5.565c.337 1.868 1.17 3.584 2.393 4.931 1.223 1.347 2.78 2.265 4.477 2.636a7.999 7.999 0 0 0 5.052-.548c1.598-.729 2.964-1.963 3.925-3.547a10.34 10.34 0 0 0 1.473-5.351c0-2.555-.921-5.005-2.56-6.81-1.64-1.807-3.865-2.822-6.184-2.822zM43.559 14.184H3.898a.56.56 0 0 1-.414-.189.687.687 0 0 1-.127-.7.637.637 0 0 1 .128-.207.57.57 0 0 1 .19-.136.525.525 0 0 1 .223-.044h39.66c.153 0 .298.066.406.185a.665.665 0 0 1 .168.446.68.68 0 0 1-.167.451.56.56 0 0 1-.406.194zM43.559 17.14H3.898a.535.535 0 0 1-.249-.02.573.573 0 0 1-.218-.131.643.643 0 0 1-.15-.22.7.7 0 0 1 0-.536.644.644 0 0 1 .15-.22.573.573 0 0 1 .218-.13.533.533 0 0 1 .249-.02h39.66c.14.023.267.1.36.216a.685.685 0 0 1 .142.422c0 .155-.05.305-.143.422a.573.573 0 0 1-.358.216zM23.704 10.638a1.9 1.9 0 0 1-1.406-.642 2.307 2.307 0 0 1-.582-1.548V4.19c0-.581.21-1.138.582-1.549A1.9 1.9 0 0 1 23.704 2a1.9 1.9 0 0 1 1.406.641c.373.411.582.968.582 1.549v4.258c0 .288-.052.572-.151.838-.1.266-.247.507-.431.71a1.985 1.985 0 0 1-.645.475c-.241.11-.5.167-.761.167zm0-7.362c-.22 0-.43.096-.586.268a.962.962 0 0 0-.243.646v4.258c0 .242.087.475.243.646a.792.792 0 0 0 .586.267c.22 0 .43-.096.586-.267a.963.963 0 0 0 .243-.646V4.19a.966.966 0 0 0-.266-.6.802.802 0 0 0-.563-.247v-.067zM32.582 10.638a1.826 1.826 0 0 1-.772-.155 1.982 1.982 0 0 1-.657-.472 2.212 2.212 0 0 1-.44-.716 2.382 2.382 0 0 1-.155-.847V4.19c.04-.553.266-1.07.636-1.446.37-.376.854-.586 1.358-.586.503 0 .988.21 1.358.586.37.377.597.893.636 1.446v4.258a2.322 2.322 0 0 1-.577 1.535c-.367.41-.865.644-1.387.655zm0-7.295a.805.805 0 0 0-.583.272.976.976 0 0 0-.246.642v4.191c0 .242.087.475.243.646a.792.792 0 0 0 .586.267c.22 0 .431-.096.587-.267a.963.963 0 0 0 .243-.646V4.19a.952.952 0 0 0-.264-.603.789.789 0 0 0-.566-.244zM14.85 10.638a1.9 1.9 0 0 1-1.406-.642 2.307 2.307 0 0 1-.582-1.548V4.19c0-.581.21-1.138.582-1.549A1.9 1.9 0 0 1 14.85 2a1.9 1.9 0 0 1 1.405.641c.373.411.583.968.583 1.549v4.258c0 .58-.21 1.138-.583 1.548a1.9 1.9 0 0 1-1.405.642zm0-7.295c-.22 0-.431.097-.587.268a.963.963 0 0 0-.243.646v4.191c0 .242.088.475.243.646a.793.793 0 0 0 .587.267c.22 0 .43-.096.586-.267a.962.962 0 0 0 .243-.646V4.19a.965.965 0 0 0-.266-.6.801.801 0 0 0-.563-.247z"/>
        <path d="M24.387 41.292H6.215c-.769-.003-1.505-.341-2.049-.94a3.382 3.382 0 0 1-.854-2.257V10.06c0-.85.306-1.664.85-2.265.544-.602 1.282-.942 2.053-.946h7.22a.527.527 0 0 1 .226.046c.072.032.137.079.192.14.054.06.097.131.126.21.03.08.043.164.041.25v.953c0 .242.088.475.243.646a.793.793 0 0 0 .587.267c.22 0 .43-.096.586-.267a.962.962 0 0 0 .243-.646v-.954a.69.69 0 0 1 .04-.246.641.641 0 0 1 .124-.209.575.575 0 0 1 .187-.14.528.528 0 0 1 .222-.05h6.098a.56.56 0 0 1 .414.19.68.68 0 0 1 .172.455v.954c0 .242.087.475.242.646a.792.792 0 0 0 .587.267c.22 0 .43-.096.586-.267a.963.963 0 0 0 .243-.646v-.954a.689.689 0 0 1 .04-.246.64.64 0 0 1 .124-.209.574.574 0 0 1 .187-.14.528.528 0 0 1 .222-.05h6.037c.077 0 .152.017.223.05.07.032.134.08.187.14a.64.64 0 0 1 .123.21.689.689 0 0 1 .04.245v.954c0 .242.088.475.243.646a.793.793 0 0 0 .587.267c.22 0 .43-.096.586-.267a.962.962 0 0 0 .243-.646v-.954a.68.68 0 0 1 .172-.456.56.56 0 0 1 .414-.189h7.22c.76.018 1.485.364 2.017.965.531.6.827 1.407.824 2.246v8.194a.68.68 0 0 1-.167.452.561.561 0 0 1-.406.193.572.572 0 0 1-.41-.193.692.692 0 0 1-.175-.452V10.06c0-.51-.184-.998-.511-1.358a1.667 1.667 0 0 0-1.233-.563h-6.635v.309a2.296 2.296 0 0 1-.636 1.446c-.37.376-.855.585-1.358.585-.504 0-.988-.209-1.358-.585a2.296 2.296 0 0 1-.636-1.446v-.322H25.68v.322c0 .58-.21 1.138-.583 1.548a1.9 1.9 0 0 1-1.405.642 1.9 1.9 0 0 1-1.406-.642 2.307 2.307 0 0 1-.582-1.548v-.322h-4.878v.322c0 .58-.21 1.138-.583 1.548a1.9 1.9 0 0 1-1.405.642 1.9 1.9 0 0 1-1.406-.642 2.307 2.307 0 0 1-.582-1.548v-.322H6.215c-.454.017-.884.229-1.198.59a2.03 2.03 0 0 0-.485 1.344v28.035c0 .498.175.977.49 1.335.313.359.741.569 1.193.586h18.172a.535.535 0 0 1 .248.02c.081.025.156.07.22.13.063.061.114.136.148.22a.7.7 0 0 1-.149.756.57.57 0 0 1-.219.131.533.533 0 0 1-.248.02z"/>
        <path d="M12.07 27.295H8.41a1.6 1.6 0 0 1-.678-.135 1.737 1.737 0 0 1-.578-.413 1.94 1.94 0 0 1-.388-.628 2.09 2.09 0 0 1-.136-.745v-4.03c0-.51.184-.998.51-1.358.328-.36.771-.563 1.234-.563h3.659a1.68 1.68 0 0 1 1.23.567c.326.359.51.846.514 1.354v4.03a2.04 2.04 0 0 1-.502 1.34 1.685 1.685 0 0 1-1.206.58zm-3.66-6.636a.527.527 0 0 0-.226.045.573.573 0 0 0-.191.14.64.64 0 0 0-.127.21.688.688 0 0 0-.04.25v4.03a.689.689 0 0 0 .04.249.64.64 0 0 0 .127.21c.055.06.12.108.191.14a.527.527 0 0 0 .226.046h3.66a.528.528 0 0 0 .221-.05.572.572 0 0 0 .188-.14.639.639 0 0 0 .123-.21.689.689 0 0 0 .04-.245v-4.03a.689.689 0 0 0-.04-.246.64.64 0 0 0-.123-.21.574.574 0 0 0-.188-.14.526.526 0 0 0-.222-.05H8.41zM21.058 27.295h-3.66c-.462 0-.905-.203-1.232-.563a2.024 2.024 0 0 1-.511-1.358v-4.03c0-.51.184-.998.51-1.358.328-.36.771-.563 1.234-.563h3.659c.46-.004.902.191 1.232.543.33.351.523.832.536 1.338v4.03c.003.257-.04.513-.128.751a1.962 1.962 0 0 1-.382.639c-.165.182-.36.327-.577.425a1.616 1.616 0 0 1-.681.146zm-3.66-6.636a.527.527 0 0 0-.225.045.573.573 0 0 0-.192.14.686.686 0 0 0-.168.46v4.03a.687.687 0 0 0 .042.249.64.64 0 0 0 .126.21c.055.06.12.108.192.14a.525.525 0 0 0 .226.045h3.659a.55.55 0 0 0 .381-.184.663.663 0 0 0 .167-.42v-4.03a.689.689 0 0 0-.04-.246.643.643 0 0 0-.123-.21.572.572 0 0 0-.188-.14.526.526 0 0 0-.222-.049l-3.634-.04zM25.18 25.4a.528.528 0 0 1-.223-.048.576.576 0 0 1-.187-.14.644.644 0 0 1-.124-.21.69.69 0 0 1-.04-.246v-3.452c0-.51.184-.998.511-1.359.327-.36.77-.562 1.233-.562h1.842c.162 0 .317.07.431.196a.708.708 0 0 1 .179.475.708.708 0 0 1-.179.475.583.583 0 0 1-.431.197H26.35a.526.526 0 0 0-.226.045.572.572 0 0 0-.191.14.64.64 0 0 0-.127.21.69.69 0 0 0-.041.25v3.452a.657.657 0 0 1-.189.417.543.543 0 0 1-.396.16zM12.07 36.927H8.41a1.68 1.68 0 0 1-1.23-.567 2.037 2.037 0 0 1-.513-1.354v-4.03c0-.51.183-.998.51-1.359.327-.36.771-.562 1.234-.562h3.658a1.68 1.68 0 0 1 1.23.566c.326.36.511.846.514 1.355v4.03a2.036 2.036 0 0 1-.514 1.354 1.68 1.68 0 0 1-1.23.567zM8.41 30.21a.54.54 0 0 0-.224.049.585.585 0 0 0-.19.14.652.652 0 0 0-.126.209.701.701 0 0 0-.045.247v4.03c0 .084.015.167.045.245.03.077.073.147.127.206a.57.57 0 0 0 .19.136.525.525 0 0 0 .224.044h3.658a.548.548 0 0 0 .406-.185.665.665 0 0 0 .167-.446v-4.03a.68.68 0 0 0-.167-.451.56.56 0 0 0-.406-.194H8.41zM21.058 36.927h-3.66a1.68 1.68 0 0 1-1.229-.567 2.037 2.037 0 0 1-.514-1.354v-4.03c0-.51.184-.998.51-1.359.328-.36.771-.562 1.234-.562h3.659c.46-.004.902.19 1.232.542.33.352.523.832.536 1.338v4.03c.003.258-.04.513-.128.752a1.962 1.962 0 0 1-.382.638c-.165.183-.36.328-.577.426a1.616 1.616 0 0 1-.681.146zm-3.66-6.717a.539.539 0 0 0-.223.049.585.585 0 0 0-.19.14.656.656 0 0 0-.127.209.702.702 0 0 0-.045.247v4.03c0 .084.016.167.045.245.03.077.073.147.128.206.054.059.119.105.19.136.07.03.147.046.223.044h3.659a.548.548 0 0 0 .405-.185.665.665 0 0 0 .168-.446v-4.03a.68.68 0 0 0-.167-.451.561.561 0 0 0-.406-.194h-3.66zM36.717 44.987c-2.348 0-4.642-.767-6.594-2.204-1.952-1.437-3.473-3.48-4.37-5.868a14.307 14.307 0 0 1-.674-7.554c.46-2.536 1.59-4.865 3.251-6.692 1.661-1.828 3.777-3.071 6.08-3.574a10.855 10.855 0 0 1 6.856.75c2.169.99 4.021 2.668 5.323 4.82 1.303 2.15 1.997 4.679 1.994 7.264-.003 3.465-1.255 6.786-3.48 9.234-2.225 2.448-5.241 3.824-8.386 3.824zm0-24.852c-2.118-.003-4.19.687-5.952 1.981-1.763 1.294-3.137 3.136-3.95 5.29a12.91 12.91 0 0 0-.614 6.816c.412 2.289 1.43 4.392 2.928 6.043 1.497 1.65 3.405 2.775 5.482 3.231a9.795 9.795 0 0 0 6.189-.669c1.957-.892 3.63-2.404 4.807-4.344 1.177-1.94 1.806-4.22 1.806-6.554-.007-3.122-1.136-6.114-3.14-8.322-2.005-2.208-4.721-3.451-7.556-3.459v-.013z"/>
        <path d="M36.717 26.973a.559.559 0 0 1-.41-.185.677.677 0 0 1-.176-.447v-2.19a.693.693 0 0 1 .175-.452c.11-.12.257-.189.41-.192a.56.56 0 0 1 .407.193.68.68 0 0 1 .167.451v2.19c0 .168-.06.328-.168.447a.548.548 0 0 1-.405.184zM40.766 28.114a.594.594 0 0 1-.415-.188.68.68 0 0 1-.166-.45c0-.168.06-.33.166-.45l.952-1.048a.559.559 0 0 1 .408-.183c.153 0 .3.066.409.183.055.058.1.128.13.205a.672.672 0 0 1-.13.695l-.94 1.048a.594.594 0 0 1-.414.188zM43.778 32.574h-1.976a.583.583 0 0 1-.43-.197.708.708 0 0 1-.18-.475c0-.178.065-.348.18-.474a.583.583 0 0 1 .43-.197h1.976c.162 0 .317.07.431.197a.708.708 0 0 1 .179.474.708.708 0 0 1-.179.475.583.583 0 0 1-.43.197zM41.717 38.082a.571.571 0 0 1-.414-.188l-.952-.967a.68.68 0 0 1-.172-.457.68.68 0 0 1 .172-.457.56.56 0 0 1 .415-.19.56.56 0 0 1 .415.19l.939 1.048a.639.639 0 0 1 .126.206.687.687 0 0 1-.126.694.535.535 0 0 1-.403.12zM36.717 40.365a.56.56 0 0 1-.414-.188.68.68 0 0 1-.172-.456v-2.176a.68.68 0 0 1 .172-.456.56.56 0 0 1 .414-.19.53.53 0 0 1 .222.05c.07.033.134.08.187.14a.64.64 0 0 1 .124.21.688.688 0 0 1 .04.245v2.177a.689.689 0 0 1-.04.246.643.643 0 0 1-.124.209.576.576 0 0 1-.187.14.528.528 0 0 1-.222.05zM31.716 38.082a.594.594 0 0 1-.414-.188.68.68 0 0 1-.166-.45c0-.168.06-.33.166-.45l.951-1.048a.559.559 0 0 1 .409-.183c.152 0 .299.066.408.183.055.06.098.131.128.21a.7.7 0 0 1-.128.703l-.939 1.035a.594.594 0 0 1-.415.188zM31.631 32.574h-1.988a.583.583 0 0 1-.43-.197.708.708 0 0 1-.18-.475c0-.178.065-.348.18-.474a.582.582 0 0 1 .43-.197h1.988c.162 0 .317.07.431.197a.708.708 0 0 1 .179.474.708.708 0 0 1-.179.475.583.583 0 0 1-.43.197zM32.656 28.114a.548.548 0 0 1-.403-.188l-.89-1.047a.68.68 0 0 1-.166-.45c0-.169.06-.33.166-.45a.58.58 0 0 1 .415-.18.58.58 0 0 1 .414.18l.94 1.047c.055.058.1.128.13.205a.672.672 0 0 1-.13.695.582.582 0 0 1-.22.154.536.536 0 0 1-.256.034zM38.9 32.574h-2.183a.559.559 0 0 1-.41-.184.677.677 0 0 1-.176-.447V28.96a.693.693 0 0 1 .175-.452c.11-.12.257-.19.41-.193a.56.56 0 0 1 .407.193.68.68 0 0 1 .167.452v2.337h1.61c.162 0 .317.07.431.197a.708.708 0 0 1 .179.475.708.708 0 0 1-.179.475.583.583 0 0 1-.431.196v-.067zM28.79 44.987H9.41a.548.548 0 0 1-.405-.185.665.665 0 0 1 .003-.89.56.56 0 0 1 .402-.188h19.38a.562.562 0 0 1 .406.193.664.664 0 0 1-.005.889.548.548 0 0 1-.401.18z"/>
    </g>
    <defs>
        <clipPath id="i3je0f0aja">
            <path fill="#fff" transform="translate(3.313 2)" d="M0 0h45.271v43H0z"/>
        </clipPath>
    </defs>
</svg>
