<svg width="53" height="48" viewBox="0 0 53 48" fill="none" xmlns="http://www.w3.org/2000/svg">
    <g clip-path="url(#15dd69q07a)" fill="#56828F">
        <path d="m11.382 27.881-4.96 12.325-.727 1.738c-.161.419.391.665.741.517l4.973-1.996-.7-.16 2.385 4.46c.051.079.126.141.216.18a.554.554 0 0 0 .555-.066.467.467 0 0 0 .158-.224l5-12.325.7-1.774a.419.419 0 0 0-.083-.4.491.491 0 0 0-.178-.133.538.538 0 0 0-.223-.046c-2.557-.155-5.018-.948-7.116-2.293-.539-.333-1.037.468-.512.801 2.247 1.447 4.886 2.3 7.628 2.465l-.486-.591-4.972 12.312-.714 1.762.93-.11-2.386-4.487a.509.509 0 0 0-.305-.213.555.555 0 0 0-.382.04L5.95 41.66l.755.53 4.946-12.324.7-1.738c.23-.518-.74-.752-.97-.247zM20.276 30.519l5 12.324.7 1.763c.149.345.728.505.93.11l2.359-4.46-.688.16 4.96 1.996c.35.148.916-.099.74-.518L29.333 29.57l-.727-1.689a.458.458 0 0 0-.11-.183.513.513 0 0 0-.186-.122.554.554 0 0 0-.446.022c-2.095 1.349-4.558 2.142-7.115 2.292-.647 0-.647.962 0 .925 2.742-.166 5.38-1.019 7.627-2.465l-.74-.271 4.958 12.324.701 1.75.741-.53-4.972-1.996a.57.57 0 0 0-.38-.037.524.524 0 0 0-.308.21l-2.358 4.46.93.111-5-12.324-.714-1.775c-.202-.554-1.186-.308-.957.247z"/>
        <path d="M20.007 29.114c-2.52.012-4.986-.66-7.086-1.933-2.1-1.273-3.739-3.087-4.71-5.213a10.704 10.704 0 0 1-.738-6.728c.488-2.26 1.7-4.337 3.48-5.966 1.782-1.629 4.053-2.737 6.524-3.184a13.813 13.813 0 0 1 7.357.677c2.325.887 4.308 2.386 5.7 4.307 1.39 1.92 2.127 4.176 2.113 6.48-.017 3.06-1.355 5.992-3.722 8.156-2.366 2.165-5.571 3.388-8.918 3.404zm0-22.911c-2.444 0-4.834.662-6.866 1.904S9.525 11.114 8.59 13.18a10.407 10.407 0 0 0-.703 6.53c.477 2.192 1.653 4.206 3.382 5.787 1.728 1.58 3.93 2.657 6.327 3.093 2.397.436 4.882.212 7.14-.644 2.258-.855 4.188-2.303 5.546-4.162 1.358-1.859 2.082-4.044 2.082-6.279-.017-2.988-1.327-5.848-3.642-7.956-2.315-2.108-5.448-3.293-8.715-3.296v-.05z"/>
        <path d="M36.96 20.302a3.13 3.13 0 0 0-.459-1.233 5.61 5.61 0 0 0-.282-.37 2.408 2.408 0 0 1-.432-.727 1.601 1.601 0 0 1 .095-1.232c.106-.191.232-.373.377-.542.149-.174.28-.36.39-.555a3.003 3.003 0 0 0 .121-2.551 3.44 3.44 0 0 0-.81-1.173 3.814 3.814 0 0 0-1.25-.787 2.028 2.028 0 0 1-.962-.66 1.76 1.76 0 0 1-.386-1.04 2.691 2.691 0 0 1 0-.456 3.012 3.012 0 0 0 0-.703 3.05 3.05 0 0 0-.432-1.343 3.454 3.454 0 0 0-1.02-1.03 3.816 3.816 0 0 0-1.392-.56 5.006 5.006 0 0 0-1.132 0 2.923 2.923 0 0 1-1.523-.197 2.513 2.513 0 0 1-.956-1.11 3.578 3.578 0 0 0-.607-.924 3.627 3.627 0 0 0-1.139-.785c-.432-.19-.902-.3-1.38-.324a3.772 3.772 0 0 0-2.575.801 2.14 2.14 0 0 1-1.318.371 2.105 2.105 0 0 1-1.27-.494 3.81 3.81 0 0 0-1.32-.573 3.985 3.985 0 0 0-1.461-.053c-.486.072-.95.234-1.367.475a3.53 3.53 0 0 0-1.053.927 3.01 3.01 0 0 0-.337.604 5.967 5.967 0 0 1-.215.407 1.921 1.921 0 0 1-1.011.776 2.614 2.614 0 0 1-1.105.074 4.407 4.407 0 0 0-1.63.111 3.788 3.788 0 0 0-1.314.694c-.38.312-.686.693-.897 1.118a3.009 3.009 0 0 0-.323 1.38v.48a2.02 2.02 0 0 1 0 .753c-.086.367-.298.7-.607.949-.215.16-.456.289-.714.382-.156.05-.305.116-.445.197a3.5 3.5 0 0 0-1.074.877 3.16 3.16 0 0 0-.61 1.193 3.041 3.041 0 0 0-.082 1.334c.072.445.242.872.5 1.255.074.11.155.217.242.32.19.217.337.463.431.727.13.443.073.914-.161 1.319-.095.148-.202.271-.31.419-.149.173-.28.359-.391.555-.226.422-.35.885-.364 1.355-.02.886.337 1.743.997 2.391.335.29.723.523 1.146.69.406.156.773.387 1.078.678.171.219.293.467.358.73.065.262.071.534.02.798-.021.275-.021.551 0 .826.058.473.226.93.49 1.34.265.409.621.763 1.045 1.039a4.147 4.147 0 0 0 2.777.542c.43-.045.865.04 1.239.24.374.2.667.504.836.87.319.838.98 1.531 1.846 1.934a3.964 3.964 0 0 0 2.884.123c.325-.117.632-.27.916-.456a2.442 2.442 0 0 1 1.604-.505c.456.09.884.27 1.253.53.374.25.794.438 1.24.555.466.106.95.127 1.425.059a3.8 3.8 0 0 0 1.338-.454 3.635 3.635 0 0 0 1.064-.912c.15-.194.272-.405.364-.628.073-.168.164-.329.27-.481.239-.328.584-.58.988-.72.404-.139.845-.159 1.262-.056a4.031 4.031 0 0 0 1.507-.162c.485-.149.93-.387 1.31-.701.372-.314.668-.695.87-1.12.202-.424.305-.882.302-1.345.014-.16.014-.32 0-.48a2.369 2.369 0 0 1 0-.69 1.81 1.81 0 0 1 .674-1.06 2.68 2.68 0 0 1 .66-.334l.445-.197c.455-.232.85-.552 1.159-.936a3.183 3.183 0 0 0 .593-2.54zm-2.116 0a.372.372 0 0 1-.174.235.437.437 0 0 1-.305.055.41.41 0 0 1-.257-.16.345.345 0 0 1-.06-.278.385.385 0 0 1 .181-.23.45.45 0 0 1 .305-.053c.052.01.102.03.146.057a.386.386 0 0 1 .11.105.351.351 0 0 1 .054.281v-.012zM33.59 23.42a.343.343 0 0 1-.059.133.376.376 0 0 1-.111.1.414.414 0 0 1-.302.05.407.407 0 0 1-.25-.158.344.344 0 0 1-.06-.273.353.353 0 0 1 .063-.133.427.427 0 0 1 .422-.15.397.397 0 0 1 .148.054.36.36 0 0 1 .11.106.325.325 0 0 1 .039.283v-.012zm-2.13 3.143a.371.371 0 0 1-.172.23.435.435 0 0 1-.3.053.418.418 0 0 1-.251-.165.355.355 0 0 1-.058-.279.374.374 0 0 1 .181-.226c.091-.051.2-.067.304-.045a.399.399 0 0 1 .148.055.36.36 0 0 1 .11.105.326.326 0 0 1 .039.284v-.012zm-3.045 2.317a.375.375 0 0 1-.178.233.44.44 0 0 1-.307.05.408.408 0 0 1-.256-.163.346.346 0 0 1-.054-.28.374.374 0 0 1 .178-.234.439.439 0 0 1 .307-.05c.105.021.197.08.255.163a.346.346 0 0 1 .055.28zm-3.706 1.59a.371.371 0 0 1-.173.229.436.436 0 0 1-.299.054.407.407 0 0 1-.25-.158.344.344 0 0 1-.06-.273.354.354 0 0 1 .063-.134.427.427 0 0 1 .422-.15.397.397 0 0 1 .149.055.36.36 0 0 1 .11.105.325.325 0 0 1 .038.284v-.012zm-5 .887a.358.358 0 0 1-.09-.118.33.33 0 0 1 0-.282.358.358 0 0 1 .09-.118.425.425 0 0 1 .283-.105c.106 0 .208.037.283.105.071.07.11.163.11.26 0 .095-.039.187-.11.258a.423.423 0 0 1-.28.112.426.426 0 0 1-.286-.1v-.012zm-3.948-.604a.436.436 0 0 1-.299-.054.371.371 0 0 1-.173-.23.34.34 0 0 1 .026-.315.384.384 0 0 1 .12-.12.426.426 0 0 1 .34-.053c.057.014.11.04.156.076.045.036.081.08.105.13.025.05.036.105.035.16a.344.344 0 0 1-.064.265.407.407 0 0 1-.246.153v-.012zm-3.693-1.578a.435.435 0 0 1-.298-.054.371.371 0 0 1-.173-.229.318.318 0 0 1 .044-.276.362.362 0 0 1 .108-.102.398.398 0 0 1 .144-.053.437.437 0 0 1 .304.044c.09.05.156.132.181.227.02.096 0 .196-.058.278a.418.418 0 0 1-.252.165zM9.01 26.858a.435.435 0 0 1-.298-.054.371.371 0 0 1-.173-.229.328.328 0 0 1 .054-.276.376.376 0 0 1 .11-.102.412.412 0 0 1 .146-.053.412.412 0 0 1 .3.04c.045.026.083.06.113.099.029.04.049.085.058.132a.338.338 0 0 1-.053.28.387.387 0 0 1-.11.106.424.424 0 0 1-.147.057zm-2.129-3.142a.427.427 0 0 1-.302-.05.376.376 0 0 1-.11-.101.34.34 0 0 1-.06-.133.319.319 0 0 1 .022-.312.36.36 0 0 1 .122-.116.401.401 0 0 1 .166-.052.438.438 0 0 1 .339.02.396.396 0 0 1 .13.105.34.34 0 0 1-.006.447.397.397 0 0 1-.133.102.433.433 0 0 1-.168.04v.05zm-.175-11.388a.39.39 0 0 1-.12.108.428.428 0 0 1-.325.044.417.417 0 0 1-.15-.071.377.377 0 0 1-.104-.12.345.345 0 0 1 .08-.43.422.422 0 0 1 .566 0c.066.06.108.14.118.226a.345.345 0 0 1-.065.243zm.849-2.835a.374.374 0 0 1 .11-.106.411.411 0 0 1 .31-.054.408.408 0 0 1 .146.062c.074.069.116.162.116.259 0 .096-.042.19-.116.258a.41.41 0 0 1-.276.105.41.41 0 0 1-.277-.105.336.336 0 0 1-.013-.419zM9.32 7.558a.44.44 0 0 1 .442-.083.399.399 0 0 1 .183.136.348.348 0 0 1 0 .412.4.4 0 0 1-.183.136.44.44 0 0 1-.235.02.416.416 0 0 1-.207-.103.354.354 0 0 1-.115-.259c0-.097.041-.19.115-.259zm2.359-1.787a.44.44 0 0 1 .283-.1.44.44 0 0 1 .283.1c.074.07.115.162.115.26 0 .096-.041.189-.115.258a.429.429 0 0 1-.54.02.363.363 0 0 1-.143-.23.344.344 0 0 1 .063-.258l.054-.05zm2.6-1.134a.44.44 0 0 1 .284-.1.44.44 0 0 1 .282.1.388.388 0 0 1 .118.11.35.35 0 0 1 .049.298.36.36 0 0 1-.078.136.4.4 0 0 1-.132.096.435.435 0 0 1-.469-.073.385.385 0 0 1-.119-.118.349.349 0 0 1-.03-.313.369.369 0 0 1 .096-.136zm2.696-.653a.425.425 0 0 1 .424-.07c.07.028.13.074.171.132a.336.336 0 0 1 0 .394.385.385 0 0 1-.172.132.425.425 0 0 1-.423-.07.354.354 0 0 1-.116-.259c0-.097.042-.19.116-.259zm5.498 0a.416.416 0 0 1 .207-.103.44.44 0 0 1 .235.02.399.399 0 0 1 .182.136.348.348 0 0 1 .069.206.348.348 0 0 1-.069.206.4.4 0 0 1-.183.136.44.44 0 0 1-.234.02.416.416 0 0 1-.207-.103.375.375 0 0 1-.107-.127.344.344 0 0 1 0-.313.375.375 0 0 1 .107-.127v.05zm2.695.653a.44.44 0 0 1 .283-.1.44.44 0 0 1 .283.1c.074.07.116.162.116.26 0 .096-.042.189-.116.258a.422.422 0 0 1-.566 0 .378.378 0 0 1-.11-.125.344.344 0 0 1 .097-.442l.013.05zm2.588 1.06a.44.44 0 0 1 .283-.1.44.44 0 0 1 .282.1c.075.07.116.162.116.26 0 .096-.041.189-.116.258a.422.422 0 0 1-.566 0 .354.354 0 0 1-.115-.259c0-.097.041-.19.116-.259zm4.137 3.698a.408.408 0 0 1 .552 0 .343.343 0 0 1 .093.264.354.354 0 0 1-.14.247.422.422 0 0 1-.56-.043.335.335 0 0 1 .055-.468zm1.455 2.465a.438.438 0 0 1 .469-.072.4.4 0 0 1 .132.095.34.34 0 0 1 .03.434.387.387 0 0 1-.119.11.435.435 0 0 1-.535-.073.35.35 0 0 1-.092-.251.355.355 0 0 1 .115-.243zm.836 2.612a.431.431 0 0 1 .572.043c.07.076.104.173.095.271a.362.362 0 0 1-.142.253.421.421 0 0 1-.566 0 .377.377 0 0 1-.124-.14.342.342 0 0 1 .023-.35.39.39 0 0 1 .142-.126v.05zm-.283 3.13c-.011 2.515-.836 4.97-2.371 7.055-1.536 2.085-3.712 3.708-6.255 4.662a15.121 15.121 0 0 1-8.033.702c-2.694-.497-5.167-1.714-7.106-3.496-1.94-1.782-3.257-4.05-3.788-6.516-.53-2.466-.25-5.022.806-7.343 1.056-2.32 2.84-4.303 5.128-5.697 2.288-1.394 4.976-2.137 7.725-2.134 3.685.006 7.217 1.349 9.821 3.733 2.604 2.384 4.07 5.615 4.073 8.986v.049zm-3.275-9.526a.41.41 0 0 1-.276.105.41.41 0 0 1-.277-.105.345.345 0 0 1 .071-.486.427.427 0 0 1 .27-.09c.098.001.193.035.266.095a.336.336 0 0 1-.054.481zm-10.35-3.833a.425.425 0 0 1-.283.106.424.424 0 0 1-.283-.106.357.357 0 0 1-.09-.118.33.33 0 0 1 0-.282.357.357 0 0 1 .09-.118.424.424 0 0 1 .283-.105c.106 0 .208.038.283.105.071.071.11.163.11.26 0 .095-.039.188-.11.258zM5.871 14.941a.43.43 0 0 1-.54.02.363.363 0 0 1-.143-.23.345.345 0 0 1 .063-.259.424.424 0 0 1 .283-.105c.105 0 .207.038.283.105a.356.356 0 0 1 .054.468zm-.459 1.96a.362.362 0 0 1 .113.189.34.34 0 0 1-.021.214.378.378 0 0 1-.15.167.431.431 0 0 1-.45 0 .378.378 0 0 1-.149-.167.34.34 0 0 1-.022-.214.362.362 0 0 1 .113-.19.424.424 0 0 1 .283-.105c.106 0 .208.037.283.105zm-.242 3.413a.328.328 0 0 1 .05-.272.373.373 0 0 1 .105-.103.412.412 0 0 1 .141-.056.45.45 0 0 1 .305.053c.09.053.155.135.18.23a.344.344 0 0 1-.059.274.406.406 0 0 1-.25.158.412.412 0 0 1-.306-.045.363.363 0 0 1-.111-.103.328.328 0 0 1-.055-.136zm29.377-2.896a.354.354 0 0 1-.092-.265.34.34 0 0 1 .043-.136.37.37 0 0 1 .097-.11.411.411 0 0 1 .289-.085.424.424 0 0 1 .27.128.36.36 0 0 1 .09.118.332.332 0 0 1-.09.4.395.395 0 0 1-.145.086.425.425 0 0 1-.336-.027.377.377 0 0 1-.126-.11z"/>
    </g>
    <defs>
        <clipPath id="15dd69q07a">
            <path fill="#fff" transform="translate(3 2)" d="M0 0h34v43H0z"/>
        </clipPath>
    </defs>
</svg>
