<svg width="53" height="48" viewBox="0 0 53 48" fill="none" xmlns="http://www.w3.org/2000/svg">
    <g clip-path="url(#t6pftty57a)" fill="#56828F" stroke="#56828F" stroke-width=".5" stroke-miterlimit="10">
        <path d="M9.15 44.64a.315.315 0 0 1-.156 0 .374.374 0 0 1-.145-.147.475.475 0 0 1-.06-.215l-.338-5.557H5.894c-.303 0-.602-.072-.881-.212a2.308 2.308 0 0 1-.744-.602 2.828 2.828 0 0 1-.492-.9 3.207 3.207 0 0 1-.163-1.057V14.298c.013-.713.258-1.393.685-1.892.426-.499.998-.778 1.595-.778h27.744c.299 0 .595.07.87.208.276.137.527.338.738.592.21.253.377.554.49.885.114.33.171.685.17 1.043v21.651c0 .721-.239 1.413-.664 1.924-.425.512-1.002.8-1.604.805H16.642l-3.523 2.886-3.775 2.945a.28.28 0 0 1-.193.072zM5.895 12.493c-.204 0-.406.048-.594.142a1.561 1.561 0 0 0-.502.404 1.908 1.908 0 0 0-.334.604 2.169 2.169 0 0 0-.114.712v21.651c.012.48.18.936.469 1.27.288.334.674.52 1.075.52H8.8c.092 0 .18.042.248.117a.472.472 0 0 1 .114.287l.313 5.211L12.71 40.8l3.619-2.887a.374.374 0 0 1 .253-.116h17.105c.409-.003.8-.2 1.088-.545a2.06 2.06 0 0 0 .456-1.302V14.298c0-.491-.162-.963-.451-1.312-.29-.348-.682-.546-1.093-.55l-27.792.058z"/>
        <path d="M28.029 18.6H11.756a.366.366 0 0 1-.22-.154.504.504 0 0 1-.087-.287c0-.104.031-.206.087-.286a.367.367 0 0 1 .22-.154h16.285a.315.315 0 0 1 .162.008.358.358 0 0 1 .144.089.447.447 0 0 1 .1.154.523.523 0 0 1 0 .379.446.446 0 0 1-.1.154.357.357 0 0 1-.144.089.314.314 0 0 1-.162.008h-.012zM19.887 23.435h-8.13a.35.35 0 0 1-.257-.136.497.497 0 0 1-.105-.311.48.48 0 0 1 .106-.307.335.335 0 0 1 .255-.126H19.9a.308.308 0 0 1 .142.028c.045.021.087.053.121.093.035.04.063.089.082.143a.506.506 0 0 1-.001.343.458.458 0 0 1-.084.147.372.372 0 0 1-.126.096.319.319 0 0 1-.146.03zM23.385 28.256H11.756a.366.366 0 0 1-.22-.153.504.504 0 0 1-.087-.287c0-.105.031-.206.087-.287a.367.367 0 0 1 .22-.153h11.64a.367.367 0 0 1 .22.153c.057.08.088.182.088.287 0 .105-.031.206-.087.287a.367.367 0 0 1-.22.153h-.012zM28.029 33.092H11.756a.349.349 0 0 1-.256-.136.497.497 0 0 1-.105-.312.48.48 0 0 1 .106-.306.335.335 0 0 1 .255-.127h16.285a.31.31 0 0 1 .142.029c.045.02.087.052.122.093.035.04.062.089.081.142a.509.509 0 0 1-.085.49.374.374 0 0 1-.125.097.319.319 0 0 1-.147.03z"/>
        <path d="M42.733 35.387a.362.362 0 0 1-.205-.072l-3.764-3.003-3.377-2.742a.418.418 0 0 1-.116-.157.505.505 0 0 1-.041-.204V14.356c0-.492-.162-.963-.451-1.312-.29-.349-.682-.546-1.093-.55H16.304a.31.31 0 0 1-.142-.029.36.36 0 0 1-.122-.093.443.443 0 0 1-.081-.142.506.506 0 0 1-.03-.17V5.09c0-.724.241-1.417.669-1.93.427-.51 1.007-.798 1.612-.798h27.744c.3 0 .596.07.872.208a2.3 2.3 0 0 1 .74.59c.212.254.38.555.494.886.114.331.173.686.173 1.044V26.74c-.009.707-.246 1.381-.663 1.882-.416.5-.978.788-1.568.803h-2.57l-.313 5.558a.551.551 0 0 1-.067.209.449.449 0 0 1-.138.151.364.364 0 0 1-.181.044zm-6.78-6.467 3.221 2.613 3.245 2.627.302-5.225a.496.496 0 0 1 .124-.286.354.354 0 0 1 .25-.119h2.907c.41 0 .802-.194 1.092-.54.29-.347.452-.817.452-1.307V5.03a2.031 2.031 0 0 0-.469-1.269c-.288-.334-.674-.52-1.075-.52H18.258c-.41 0-.802.194-1.092.54-.29.347-.452.817-.452 1.307v6.539h16.972c.299 0 .595.07.87.208.277.137.527.338.738.592.21.253.377.554.49.885.114.33.171.685.17 1.043V28.92z"/>
    </g>
    <defs>
        <clipPath id="t6pftty57a">
            <path fill="#fff" transform="translate(3.313 2)" d="M0 0h45.271v43H0z"/>
        </clipPath>
    </defs>
</svg>
