<svg width="53" height="48" viewBox="0 0 53 48" fill="none" xmlns="http://www.w3.org/2000/svg">
    <g clip-path="url(#57rjyeutna)" fill="#56828F">
        <path d="M32.946 45a.614.614 0 0 1-.458-.213.774.774 0 0 1-.19-.514c-.069-1.902-.791-3.701-2.016-5.02-1.225-1.319-2.857-2.055-4.555-2.055-1.699 0-3.331.736-4.556 2.055-1.225 1.319-1.947 3.118-2.016 5.02a.77.77 0 0 1-.218.46.62.62 0 0 1-.435.185.62.62 0 0 1-.435-.184.77.77 0 0 1-.219-.46c0-2.342.83-4.587 2.306-6.243 1.477-1.655 3.48-2.585 5.567-2.585 2.088 0 4.09.93 5.567 2.585 1.476 1.656 2.306 3.901 2.306 6.242a.773.773 0 0 1-.19.514.614.614 0 0 1-.458.213zM25.721 34.695a3.486 3.486 0 0 1-2.094-.712 4.16 4.16 0 0 1-1.388-1.897 4.704 4.704 0 0 1-.214-2.441 4.406 4.406 0 0 1 1.031-2.164 3.663 3.663 0 0 1 1.93-1.157 3.391 3.391 0 0 1 2.177.24c.69.32 1.278.862 1.692 1.557a4.6 4.6 0 0 1 .635 2.348c0 .555-.097 1.104-.287 1.617-.19.513-.467.979-.817 1.371-.35.393-.765.704-1.223.916a3.418 3.418 0 0 1-1.442.322zm0-6.987a2.272 2.272 0 0 0-1.375.447c-.41.298-.73.726-.922 1.23a3.071 3.071 0 0 0-.155 1.595c.09.538.322 1.033.663 1.424.342.39.78.657 1.258.768.477.111.974.06 1.426-.146.452-.206.84-.558 1.112-1.01.274-.454.42-.988.423-1.535a2.954 2.954 0 0 0-.713-1.936c-.454-.516-1.07-.812-1.717-.825v-.012z"/>
        <path d="M47.385 45a.614.614 0 0 1-.459-.213.773.773 0 0 1-.19-.514c-.068-1.902-.79-3.701-2.015-5.02-1.225-1.319-2.858-2.055-4.556-2.055s-3.33.736-4.555 2.055c-1.225 1.319-1.947 3.118-2.016 5.02a.774.774 0 0 1-.19.514.614.614 0 0 1-.458.213.615.615 0 0 1-.458-.213.774.774 0 0 1-.19-.514c0-2.34.83-4.586 2.306-6.242 1.476-1.655 3.479-2.585 5.567-2.585 2.087 0 4.09.93 5.566 2.585 1.477 1.656 2.306 3.901 2.306 6.242a.804.804 0 0 1-.05.281.737.737 0 0 1-.143.237.645.645 0 0 1-.214.157.587.587 0 0 1-.252.052zM40.17 34.695a3.485 3.485 0 0 1-2.096-.706 4.156 4.156 0 0 1-1.393-1.894 4.704 4.704 0 0 1-.219-2.443 4.408 4.408 0 0 1 1.029-2.167 3.663 3.663 0 0 1 1.93-1.16 3.392 3.392 0 0 1 2.179.238c.689.32 1.278.861 1.693 1.557a4.6 4.6 0 0 1 .636 2.349c0 1.119-.396 2.192-1.1 2.984-.705.792-1.66 1.239-2.658 1.242zm0-6.987c-.486 0-.962.162-1.367.465-.405.304-.72.735-.907 1.24a3.074 3.074 0 0 0-.14 1.595c.095.535.33 1.027.674 1.413.344.386.783.65 1.26.756.478.106.973.052 1.423-.157.45-.21.834-.563 1.105-1.017.27-.454.415-.988.415-1.534a2.938 2.938 0 0 0-.725-1.945c-.462-.515-1.086-.804-1.737-.804v-.012zM18.507 45a.586.586 0 0 1-.251-.052.645.645 0 0 1-.214-.157.737.737 0 0 1-.143-.237.804.804 0 0 1-.05-.28c0-1.953-.692-3.826-1.924-5.207-1.231-1.38-2.901-2.156-4.643-2.156-1.741 0-3.411.776-4.642 2.156-1.232 1.381-1.924 3.254-1.924 5.206a.77.77 0 0 1-.218.46.62.62 0 0 1-.435.185.62.62 0 0 1-.435-.184.77.77 0 0 1-.218-.46c0-2.342.83-4.587 2.306-6.243 1.476-1.655 3.478-2.585 5.566-2.585 2.088 0 4.09.93 5.567 2.585 1.477 1.656 2.306 3.901 2.306 6.242a.774.774 0 0 1-.19.514.614.614 0 0 1-.458.213zM11.282 34.695a3.486 3.486 0 0 1-2.094-.712A4.16 4.16 0 0 1 7.8 32.086a4.704 4.704 0 0 1-.214-2.441 4.406 4.406 0 0 1 1.031-2.164 3.663 3.663 0 0 1 1.93-1.157 3.391 3.391 0 0 1 2.178.24c.688.32 1.277.862 1.691 1.557a4.6 4.6 0 0 1 .635 2.348c-.002 1.12-.4 2.193-1.107 2.985-.706.792-1.663 1.238-2.662 1.241zm0-6.987c-.487 0-.963.162-1.368.465-.404.304-.72.735-.906 1.24a3.073 3.073 0 0 0-.14 1.595c.094.535.329 1.027.673 1.413.345.386.783.65 1.261.756.478.106.973.052 1.423-.157.45-.21.834-.563 1.105-1.017.27-.454.415-.988.415-1.534a2.938 2.938 0 0 0-.725-1.945c-.462-.515-1.086-.804-1.738-.804v-.012zM3.96 23.797a.585.585 0 0 1-.4-.158.738.738 0 0 1-.24-.36.824.824 0 0 1-.008-.451l1.858-6.055c-.959-1.297-1.486-2.928-1.49-4.613 0-4.638 4.32-8.477 9.514-8.477 5.194 0 9.557 3.839 9.557 8.477s-4.32 8.404-9.514 8.404a10.428 10.428 0 0 1-3.672-.654l-5.248 3.766a.56.56 0 0 1-.357.12zm9.234-18.588c-4.482 0-8.218 3.112-8.218 6.95.026 1.466.542 2.866 1.447 3.924a.76.76 0 0 1 .159.342.811.811 0 0 1-.019.385l-1.371 4.565 3.887-2.822a.622.622 0 0 1 .583-.073 9.366 9.366 0 0 0 3.532.679c4.525 0 8.218-3.112 8.218-6.939 0-3.826-3.693-7.011-8.218-7.011z"/>
        <path d="M13.237 13.395c.674 0 1.22-.613 1.22-1.369 0-.755-.546-1.368-1.22-1.368-.674 0-1.22.613-1.22 1.368 0 .756.546 1.369 1.22 1.369zM17.038 13.395c.674 0 1.22-.613 1.22-1.369 0-.755-.546-1.368-1.22-1.368-.674 0-1.22.613-1.22 1.368 0 .756.546 1.369 1.22 1.369zM9.436 13.395c.674 0 1.22-.613 1.22-1.369 0-.755-.546-1.368-1.22-1.368-.674 0-1.22.613-1.22 1.368 0 .756.546 1.369 1.22 1.369zM47.935 22.04a.654.654 0 0 1-.356-.108l-5.205-3.766a10.709 10.709 0 0 1-3.672.642c-5.248 0-9.514-3.766-9.514-8.404S33.453 2 38.702 2c5.248 0 9.514 3.766 9.514 8.404-.013 1.679-.552 3.299-1.523 4.577l1.858 6.055a.796.796 0 0 1-.076.669.662.662 0 0 1-.236.226.58.58 0 0 1-.304.073v.037zm-5.475-5.412a.56.56 0 0 1 .356.121l3.9 2.81-1.383-4.505a.81.81 0 0 1-.02-.385.76.76 0 0 1 .16-.342c.905-1.057 1.421-2.458 1.447-3.923 0-3.827-3.682-6.939-8.218-6.939s-8.207 3.112-8.207 6.939c0 3.826 3.682 6.95 8.207 6.95a9.421 9.421 0 0 0 3.542-.678.442.442 0 0 1 .216-.048z"/>
        <path d="M38.659 11.639c.674 0 1.22-.613 1.22-1.368 0-.756-.546-1.369-1.22-1.369-.674 0-1.22.613-1.22 1.369 0 .755.546 1.368 1.22 1.368zM33.637 10.27c-.002.275.069.543.203.772.134.229.327.408.552.514.225.106.474.134.714.081.24-.053.46-.184.633-.378.172-.194.29-.441.337-.71a1.537 1.537 0 0 0-.073-.8 1.356 1.356 0 0 0-.458-.62 1.137 1.137 0 0 0-.688-.227 1.169 1.169 0 0 0-.86.405 1.468 1.468 0 0 0-.36.964zM42.46 11.639c.674 0 1.22-.613 1.22-1.368 0-.756-.546-1.369-1.22-1.369-.674 0-1.22.613-1.22 1.369 0 .755.546 1.368 1.22 1.368zM25.948 12.874c.674 0 1.22-.613 1.22-1.368 0-.756-.546-1.369-1.22-1.369-.674 0-1.22.613-1.22 1.369 0 .755.546 1.368 1.22 1.368z"/>
        <path d="M25.991 20.055c-2.323.01-4.59-.799-6.48-2.313a.672.672 0 0 1-.189-.244.757.757 0 0 1-.07-.313.793.793 0 0 1 .048-.319c.038-.1.095-.19.168-.262a5.999 5.999 0 0 0 1.416-2.008 6.655 6.655 0 0 0 .55-2.485 6.795 6.795 0 0 0-.705-2.82 5.994 5.994 0 0 0-1.779-2.145.72.72 0 0 1-.191-.244.807.807 0 0 1-.079-.313.842.842 0 0 1 .057-.318c.04-.1.097-.19.17-.263 1.987-1.853 4.5-2.845 7.084-2.797 2.127-.017 4.215.637 6.026 1.889.08.062.149.143.199.237a.827.827 0 0 1 .061.628.744.744 0 0 1-.152.273 10.01 10.01 0 0 0-.453.581c-.14.194-.249.388-.367.582a6.074 6.074 0 0 0-.767 2.942c.021 1.545.588 3.017 1.576 4.093l.238.255c.335.35.696.665 1.08.944.08.06.148.138.198.23a.801.801 0 0 1-.09.896 10.509 10.509 0 0 1-3.482 2.49 9.56 9.56 0 0 1-4.067.804zm-5.086-2.967c1.545 1.002 3.301 1.52 5.086 1.502 2.168.049 4.287-.733 6.005-2.216a6.74 6.74 0 0 1-.584-.557l-.28-.315c-1.208-1.353-1.891-3.184-1.901-5.098a7.537 7.537 0 0 1 .972-3.718 9.66 9.66 0 0 1 .454-.714 9.359 9.359 0 0 0-4.655-1.211c-2.01-.031-3.98.637-5.637 1.913a7.451 7.451 0 0 1 1.713 2.459c.41.945.64 1.976.673 3.027-.034 1.846-.695 3.608-1.846 4.928z"/>
        <path d="M29.75 12.898c.194.003.387-.047.56-.145a6.583 6.583 0 0 1-.431-2.35v-.254h-.097c-.305.033-.59.191-.796.446-.206.254-.32.585-.32.929 0 .344.114.675.32.93.207.253.49.412.796.444h-.033zM22.146 10.137c-.128.006-.255.03-.377.073a6.48 6.48 0 0 1 .291 1.95 5.29 5.29 0 0 1 0 .714h.13c.17.018.342-.004.505-.065.163-.06.312-.16.439-.288.127-.13.228-.288.297-.463a1.526 1.526 0 0 0 0-1.116 1.387 1.387 0 0 0-.297-.463 1.21 1.21 0 0 0-.439-.289 1.106 1.106 0 0 0-.505-.065l-.044.012z"/>
    </g>
    <defs>
        <clipPath id="57rjyeutna">
            <path fill="#fff" transform="translate(3.313 2)" d="M0 0h45.271v43H0z"/>
        </clipPath>
    </defs>
</svg>
