<svg width="53" height="48" viewBox="0 0 53 48" fill="none" xmlns="http://www.w3.org/2000/svg">
    <g clip-path="url(#vm5hgmsc6a)" fill="#56828F">
        <path d="M36.684 40.224H9.41a.365.365 0 0 1-.262-.127.439.439 0 0 1-.108-.29V2.405c0-.107.04-.21.109-.286A.354.354 0 0 1 9.408 2H29.74a.364.364 0 0 1 .261.12L37 9.73c.067.078.106.18.11.286v11.042a.435.435 0 0 1-.055.203l-2.38 4.526-.565 5.777 2.401-1.93a.346.346 0 0 1 .392 0 .409.409 0 0 1 .148.154.46.46 0 0 1 .058.216v9.874a.425.425 0 0 1-.148.267.356.356 0 0 1-.276.078zm-26.851-.822h26.471V30.73l-2.489 2.001a.337.337 0 0 1-.2.068.337.337 0 0 1-.202-.068.392.392 0 0 1-.148-.171.44.44 0 0 1-.036-.234l.402-4.061.26-2.704a.433.433 0 0 1 0-.167l2.37-4.503v-10.72L29.587 2.81H9.833v36.592z"/>
        <path d="M31.207 15.484H13.386a.347.347 0 0 1-.164-.009.37.37 0 0 1-.145-.084.414.414 0 0 1-.1-.143.45.45 0 0 1 .1-.494.372.372 0 0 1 .145-.083.349.349 0 0 1 .164-.01h17.822a.374.374 0 0 1 .226.143c.058.075.09.17.09.269a.442.442 0 0 1-.09.269.373.373 0 0 1-.227.142zM31.207 21.523H13.386a.351.351 0 0 1-.156-.036.385.385 0 0 1-.13-.103.43.43 0 0 1-.094-.326.436.436 0 0 1 .115-.287.364.364 0 0 1 .265-.118h17.822a.355.355 0 0 1 .254.123.427.427 0 0 1 .104.282.457.457 0 0 1-.087.318.387.387 0 0 1-.122.104.354.354 0 0 1-.15.043zM31.207 27.55H13.386a.354.354 0 0 1-.261-.119.425.425 0 0 1-.108-.286c0-.108.038-.21.108-.287a.354.354 0 0 1 .26-.118h17.822c.098 0 .192.043.262.119.069.075.108.178.108.286 0 .107-.04.21-.108.286a.354.354 0 0 1-.262.119zM31.207 33.589H13.386a.342.342 0 0 1-.141-.03.37.37 0 0 1-.12-.089.438.438 0 0 1 0-.573.368.368 0 0 1 .12-.087.34.34 0 0 1 .14-.031h17.822c.098 0 .192.043.262.118.069.077.108.18.108.287 0 .107-.04.21-.108.286a.354.354 0 0 1-.262.119zM36.684 10.552H29.74a.357.357 0 0 1-.247-.126.427.427 0 0 1-.1-.279V2.405a.425.425 0 0 1 .043-.24.374.374 0 0 1 .163-.165.32.32 0 0 1 .213-.03.34.34 0 0 1 .19.113l6.997 7.647c.067.078.106.18.109.286v.131c0 .059-.01.117-.032.17a.404.404 0 0 1-.095.14.362.362 0 0 1-.139.083.34.34 0 0 1-.158.012zm-6.574-.81h5.803L30.11 3.394v6.348z"/>
        <path d="M30.957 45H3.683a.354.354 0 0 1-.261-.119.425.425 0 0 1-.108-.286V7.181a.44.44 0 0 1 .104-.294.37.37 0 0 1 .121-.09.342.342 0 0 1 .144-.032h5.727a.338.338 0 0 1 .16.012c.053.017.1.047.141.087.04.04.073.089.094.144a.44.44 0 0 1 .029.173v32.22h21.124c.098 0 .192.043.262.12.07.075.108.178.108.286v4.764a.44.44 0 0 1-.1.302.37.37 0 0 1-.123.094.342.342 0 0 1-.146.033zm-26.906-.822h26.537v-3.966H9.408a.354.354 0 0 1-.26-.119.426.426 0 0 1-.109-.286V7.598H4.051v36.58zM23.481 10.803H13.386a.349.349 0 0 1-.164-.01.372.372 0 0 1-.145-.083.415.415 0 0 1-.1-.143.45.45 0 0 1 .1-.494.37.37 0 0 1 .145-.084.348.348 0 0 1 .164-.008h10.095a.374.374 0 0 1 .227.142c.058.075.09.17.09.269a.442.442 0 0 1-.09.269.374.374 0 0 1-.227.142zM23.481 6.121H13.386a.348.348 0 0 1-.164-.008.371.371 0 0 1-.145-.084.415.415 0 0 1-.1-.143.45.45 0 0 1 .1-.494.371.371 0 0 1 .145-.084.348.348 0 0 1 .164-.009h10.095a.374.374 0 0 1 .227.143.442.442 0 0 1 0 .538.374.374 0 0 1-.227.141zM33.598 32.803a.328.328 0 0 1-.185 0 .391.391 0 0 1-.148-.172.44.44 0 0 1-.036-.233l.663-6.766a.43.43 0 0 1 0-.167L43.519 7.17a.394.394 0 0 1 .097-.12.338.338 0 0 1 .414-.023l4.347 2.763a.4.4 0 0 1 .173.242.44.44 0 0 1-.032.306l-9.584 18.248a.498.498 0 0 1-.098.12l-5.02 4.025a.367.367 0 0 1-.218.072zm1.022-7.052-.565 5.777 4.27-3.43 9.378-17.76-3.705-2.382L34.62 25.75z"/>
        <path d="M46.9 13.042a.34.34 0 0 1-.186 0l-4.346-2.752a.385.385 0 0 1-.11-.106.424.424 0 0 1-.07-.303.43.43 0 0 1 .05-.15L43.52 7.17a.395.395 0 0 1 .096-.12.338.338 0 0 1 .414-.023l4.347 2.763a.4.4 0 0 1 .173.242.44.44 0 0 1-.032.306l-1.304 2.501a.39.39 0 0 1-.217.191l-.098.012zM43.051 9.73l3.706 2.382.945-1.775-3.705-2.382-.946 1.775zM33.598 32.803a.328.328 0 0 1-.185 0 .392.392 0 0 1-.148-.172.44.44 0 0 1-.036-.233l.663-6.766a.417.417 0 0 1 .059-.189.37.37 0 0 1 .136-.132.324.324 0 0 1 .359 0l4.346 2.751a.409.409 0 0 1 .136.14.457.457 0 0 1 .06.194.477.477 0 0 1-.04.191.437.437 0 0 1-.112.154l-5.02 3.99a.367.367 0 0 1-.218.072zm.967-6.516-.51 5.241 3.879-3.109-3.369-2.132z"/>
        <path d="M33.598 32.803a.328.328 0 0 1-.185 0 .391.391 0 0 1-.148-.172.44.44 0 0 1-.036-.233l.402-4.062a.443.443 0 0 1 .054-.177c.03-.053.071-.099.12-.133a.373.373 0 0 1 .337 0c.477.227.941.486 1.39.775.446.284.878.594 1.294.929.047.038.085.089.112.147a.45.45 0 0 1 0 .368.371.371 0 0 1-.112.14l-3.01 2.382a.36.36 0 0 1-.218.036zm.706-3.86-.25 2.585 1.913-1.536-.804-.596a8.86 8.86 0 0 0-.858-.452z"/>
    </g>
    <defs>
        <clipPath id="vm5hgmsc6a">
            <path fill="#fff" transform="translate(3.313 2)" d="M0 0h45.271v43H0z"/>
        </clipPath>
    </defs>
</svg>
