<svg width="53" height="48" viewBox="0 0 53 48" fill="none" xmlns="http://www.w3.org/2000/svg">
    <g clip-path="url(#gd4n05e1ra)" fill="#56828F">
        <path d="M42.429 44.94H6.574a3.265 3.265 0 0 1-2.306-.953 3.252 3.252 0 0 1-.955-2.302V13.513a3.253 3.253 0 0 1 .976-2.263 3.265 3.265 0 0 1 2.285-.933H42.43c.855 0 1.675.335 2.285.933.61.598.961 1.41.977 2.263v9.6a.368.368 0 0 1-.37.37h-9.523a4.135 4.135 0 0 0-2.92 1.207 4.12 4.12 0 0 0 0 5.83 4.135 4.135 0 0 0 2.92 1.208h9.524a.37.37 0 0 1 .369.368v9.589c0 .863-.344 1.692-.956 2.302a3.265 3.265 0 0 1-2.306.954zM6.574 11.007c-.667 0-1.307.264-1.78.734a2.516 2.516 0 0 0-.743 1.773v28.172c0 .668.265 1.309.739 1.781a2.526 2.526 0 0 0 1.784.738H42.43a2.528 2.528 0 0 0 2.353-1.55c.128-.307.194-.636.194-.969v-9.22h-9.154a4.885 4.885 0 0 1-3.294-1.507 4.867 4.867 0 0 1 0-6.717 4.885 4.885 0 0 1 3.294-1.507h9.154v-9.22a2.516 2.516 0 0 0-.743-1.774 2.526 2.526 0 0 0-1.78-.734H6.574z"/>
        <path d="M48.202 32.465h-12.38a4.884 4.884 0 0 1-3.294-1.507 4.867 4.867 0 0 1 0-6.717 4.885 4.885 0 0 1 3.294-1.507h12.38a.381.381 0 0 1 .381.38v8.982a.366.366 0 0 1-.38.369zm-12.38-8.983a4.135 4.135 0 0 0-2.92 1.208 4.119 4.119 0 0 0 0 5.83 4.135 4.135 0 0 0 2.92 1.208h12.011v-8.246h-12.01z"/>
        <path d="M37.155 30.076a2.491 2.491 0 0 1-2.3-1.535 2.48 2.48 0 0 1 .545-2.708 2.489 2.489 0 0 1 3.514 3.524 2.475 2.475 0 0 1-1.759.72zm0-4.206a1.74 1.74 0 0 0-1.605 1.071 1.732 1.732 0 0 0 1.266 2.366 1.741 1.741 0 0 0 1.784-.738 1.733 1.733 0 0 0-1.445-2.699zM12.276 45a3.292 3.292 0 0 1-.607 0 .373.373 0 0 1-.333-.404.37.37 0 0 1 .404-.333h1.096a.37.37 0 0 1 .369.333.392.392 0 0 1-.298.404c-.21.018-.421.018-.63 0zm31.939-33.388a.37.37 0 0 1-.227-.107 2.479 2.479 0 0 0-1.56-.534H8.385a.37.37 0 0 1-.31-.297.368.368 0 0 1 .202-.357l30.498-8.21a3.279 3.279 0 0 1 2.46.32 3.269 3.269 0 0 1 1.528 1.95l1.798 6.7a.51.51 0 0 1 0 .131.367.367 0 0 1-.37.369l.025.035zm-33.022-1.295h31.236c.407.002.81.078 1.19.226l-1.571-5.94a2.53 2.53 0 0 0-2.44-1.866c-.198.007-.394.039-.584.095l-27.831 7.485zM12.955 15.498h-4.44a.381.381 0 0 1 0-.749h4.44a.382.382 0 0 1 .314.374.38.38 0 0 1-.314.375zM19.835 15.498h-4.44a.38.38 0 0 1 0-.749h4.44a.382.382 0 0 1 .225.618.381.381 0 0 1-.225.13zM26.728 15.498h-4.453a.381.381 0 0 1 0-.749h4.453a.381.381 0 0 1 .225.618.38.38 0 0 1-.225.13zM33.608 15.498h-4.44a.383.383 0 0 1-.448-.375.38.38 0 0 1 .448-.374h4.44a.381.381 0 0 1 0 .749zM40.489 15.498h-4.44a.381.381 0 0 1-.226-.619.382.382 0 0 1 .225-.13h4.44a.382.382 0 0 1 .226.618.381.381 0 0 1-.225.13zM12.955 40.45h-4.44a.37.37 0 0 1-.261-.63.37.37 0 0 1 .26-.107h4.44a.37.37 0 0 1 .37.368.368.368 0 0 1-.37.368zM19.835 40.45h-4.44a.37.37 0 1 1 0-.737h4.44a.37.37 0 0 1 .261.628.37.37 0 0 1-.26.108zM26.728 40.45h-4.453a.37.37 0 1 1 0-.737h4.453a.37.37 0 0 1 .26.628.37.37 0 0 1-.26.108zM33.608 40.45h-4.44a.37.37 0 0 1-.261-.63.37.37 0 0 1 .26-.107h4.441a.37.37 0 0 1 .37.368.368.368 0 0 1-.37.368zM40.489 40.45h-4.44a.37.37 0 0 1-.261-.63.37.37 0 0 1 .26-.107h4.44a.37.37 0 0 1 .37.368.368.368 0 0 1-.37.368z"/>
        <path d="M45.322 36.754H3.682a.37.37 0 0 1-.37-.368V18.825a.368.368 0 0 1 .37-.38h41.663a.369.369 0 0 1 .37.38v4.289a.368.368 0 0 1-.37.368h-9.523a4.135 4.135 0 0 0-2.92 1.208 4.119 4.119 0 0 0 0 5.83 4.135 4.135 0 0 0 2.92 1.208h9.523a.37.37 0 0 1 .37.368v4.29a.366.366 0 0 1-.245.347.371.371 0 0 1-.148.021zM4.05 36.017h40.926v-3.564h-9.154a4.884 4.884 0 0 1-3.294-1.507 4.867 4.867 0 0 1 0-6.717 4.884 4.884 0 0 1 3.294-1.507h9.154v-3.565H4.05v16.86z"/>
    </g>
    <defs>
        <clipPath id="gd4n05e1ra">
            <path fill="#fff" transform="translate(3.313 2)" d="M0 0h45.271v43H0z"/>
        </clipPath>
    </defs>
</svg>
