<svg width="53" height="48" viewBox="0 0 53 48" fill="none" xmlns="http://www.w3.org/2000/svg">
    <g clip-path="url(#a0w9yc6w5a)" fill="#56828F">
        <path d="M38.094 31.034H5.193c-.498-.005-.975-.301-1.327-.825s-.55-1.234-.554-1.975V4.8c.003-.741.202-1.451.554-1.975.352-.524.83-.82 1.327-.825h32.901c.498.004.975.3 1.327.825.352.524.551 1.234.554 1.975v23.434c-.003.741-.202 1.45-.554 1.975-.352.524-.829.82-1.327.825zM5.193 3.1c-.288 0-.565.171-.769.474-.204.304-.318.716-.318 1.145v23.515c0 .429.114.84.318 1.144.204.304.48.474.769.474h32.901c.289 0 .565-.17.769-.474.204-.303.318-.715.318-1.144V4.8c0-.43-.114-.841-.318-1.145-.204-.303-.48-.474-.769-.474l-32.901-.08z"/>
        <path d="M32.334 27.182H10.92c-.098 0-.192-.058-.261-.161a.709.709 0 0 1-.108-.39c0-1.683-.45-3.299-1.248-4.491-.799-1.192-1.882-1.864-3.013-1.869-.093.01-.185-.033-.258-.12a.649.649 0 0 1-.134-.349v-6.473c0-.148.039-.29.108-.395.069-.106.163-.168.262-.172 1.131-.004 2.215-.676 3.013-1.869.8-1.192 1.248-2.807 1.248-4.491 0-.075.01-.15.03-.218A.604.604 0 0 1 10.646 6a.383.383 0 0 1 .127-.117.26.26 0 0 1 .148-.032h21.413c.098 0 .192.058.261.16.07.104.108.244.108.39.002.838.114 1.667.332 2.44a7.11 7.11 0 0 0 .935 2.064c.4.59.874 1.056 1.395 1.371.522.316 1.08.475 1.642.469.094.02.178.09.239.198a.76.76 0 0 1 .088.384v6.474a.709.709 0 0 1-.109.39c-.069.102-.163.16-.261.16-1.13-.013-2.216.64-3.023 1.817-.806 1.177-1.267 2.781-1.281 4.462a.724.724 0 0 1-.093.368c-.06.102-.143.167-.233.183zm-21.076-1.117h20.717c.09-1.777.604-3.447 1.45-4.709.845-1.262 1.965-2.031 3.159-2.169V13.83c-1.195-.131-2.318-.899-3.165-2.162-.846-1.262-1.358-2.936-1.444-4.716H11.258c-.088 1.78-.603 3.455-1.45 4.718-.849 1.262-1.973 2.03-3.17 2.16v5.357c1.195.137 2.317.906 3.164 2.168.847 1.261 1.364 2.932 1.456 4.71z"/>
        <path d="M21.616 22.925c-1.565 0-2.793-2.816-2.793-6.473 0-3.658 1.228-6.473 2.793-6.473 1.566 0 2.794 2.816 2.794 6.473s-1.228 6.473-2.794 6.473zm0-11.716c-1.108 0-2 2.427-2 5.356 0 2.93.946 5.308 2.055 5.308 1.108 0 2.054-2.427 2.054-5.308 0-2.88-1-5.357-2.109-5.357z"/>
        <path d="M41.964 37.442H9.117c-.247 0-.49-.072-.718-.213a2.031 2.031 0 0 1-.608-.608 3.134 3.134 0 0 1-.405-.908 4.001 4.001 0 0 1-.139-1.07v-4.176c0-.078.01-.155.032-.227a.596.596 0 0 1 .091-.187.368.368 0 0 1 .135-.114.255.255 0 0 1 .155-.022h30.434c.289 0 .565-.17.769-.474.204-.304.318-.715.318-1.145V8.976a.697.697 0 0 1 .118-.349.335.335 0 0 1 .24-.152h2.425c.498 0 .977.294 1.33.82.352.525.55 1.237.55 1.98v23.369c.002.368-.046.733-.14 1.074-.094.34-.233.65-.407.91-.175.26-.383.467-.612.606-.229.14-.474.211-.721.21zM7.986 30.97v3.609c0 .429.115.84.319 1.144.203.304.48.474.768.474h32.89c.29 0 .566-.17.77-.474.203-.303.318-.715.318-1.144v-23.37c0-.429-.115-.84-.319-1.144-.203-.303-.48-.474-.768-.474H39.92v18.644c-.002.727-.194 1.425-.534 1.947s-.803.828-1.292.852L7.986 30.97z"/>
        <path d="M46.703 45H13.867c-.495-.009-.968-.307-1.316-.831-.348-.525-.543-1.232-.543-1.969v-5.308c0-.146.039-.286.108-.39.07-.102.164-.16.262-.16h29.586c.288 0 .565-.17.769-.474.203-.304.318-.715.318-1.145V16.565a.805.805 0 0 1 .021-.272.6.6 0 0 1 .107-.223.34.34 0 0 1 .166-.119.254.254 0 0 1 .184.015h3.261c.247-.002.492.07.721.21.23.14.437.345.612.606.175.26.313.57.407.91a4 4 0 0 1 .14 1.074V42.2c0 .379-.05.754-.15 1.102-.1.349-.247.663-.43.925a1.968 1.968 0 0 1-.64.598 1.333 1.333 0 0 1-.747.175zm-33.978-7.558V42.2c0 .22.03.437.088.639.058.202.143.384.25.535.106.151.233.269.371.345a.77.77 0 0 0 .433.1h32.836c.288 0 .565-.17.769-.474.203-.304.318-.716.318-1.145V18.766c0-.429-.115-.84-.318-1.144-.204-.304-.48-.474-.769-.474h-2.859v17.494c.002.369-.046.734-.14 1.074a3.13 3.13 0 0 1-.407.911c-.175.26-.383.466-.612.606-.229.14-.474.211-.721.21H12.725z"/>
    </g>
    <defs>
        <clipPath id="a0w9yc6w5a">
            <path fill="#fff" transform="translate(3.313 2)" d="M0 0h45.271v43H0z"/>
        </clipPath>
    </defs>
</svg>
