<svg width="53" height="48" viewBox="0 0 53 48" fill="none" xmlns="http://www.w3.org/2000/svg">
    <g clip-path="url(#nlo0mxxbha)" fill="#56828F">
        <path d="M22.468 24.127a.303.303 0 0 1-.22-.1l-2.41-2.597a.342.342 0 0 1-.097-.244.363.363 0 0 1 .097-.245L30.626 9.313a.324.324 0 0 1 .227-.094c.084 0 .165.033.227.094l2.41 2.597a.36.36 0 0 1 0 .49L22.7 24.026a.323.323 0 0 1-.233.1zm-1.943-2.935 1.943 2.132L32.803 12.16l-1.944-2.107-10.334 11.139z"/>
        <path d="M33.466 12.738a.274.274 0 0 1-.122-.03.294.294 0 0 1-.1-.083l-2.827-3.036a.353.353 0 0 1-.098-.25.375.375 0 0 1 .098-.252l1.012-1.091a.325.325 0 0 1 .107-.078.306.306 0 0 1 .359.078l2.84 3.048a.332.332 0 0 1 .105.238.336.336 0 0 1-.026.139.314.314 0 0 1-.08.112l-1.012 1.092a.316.316 0 0 1-.116.088.294.294 0 0 1-.14.025zm-2.328-3.4 2.328 2.509.559-.602-2.328-2.509-.559.602z"/>
        <path d="M34.28 11.408a.323.323 0 0 1-.233-.1L31.64 8.71a.352.352 0 0 1-.093-.238.375.375 0 0 1 .093-.251l.942-1.016c.111-.122.243-.218.39-.283a1.09 1.09 0 0 1 .46-.094c.16-.004.319.027.467.092.148.065.282.162.394.285l1.164 1.254c.116.117.209.26.272.417a1.338 1.338 0 0 1 0 .998 1.26 1.26 0 0 1-.272.416l-.943 1.016a.311.311 0 0 1-.232.1zm-1.955-2.935 1.956 2.094.698-.765a.643.643 0 0 0 0-.853l-1.164-1.254a.56.56 0 0 0-.396-.167.56.56 0 0 0-.395.167l-.699.778zM18.93 25.357a.303.303 0 0 1-.22-.1.391.391 0 0 1-.081-.364l1.162-3.764a.393.393 0 0 1 .09-.148.357.357 0 0 1 .143-.09.325.325 0 0 1 .169.008c.055.017.105.05.145.092l2.398 2.584a.405.405 0 0 1 .093.339.396.396 0 0 1-.083.153.36.36 0 0 1-.138.098l-3.492 1.254-.186-.063zm1.28-3.513-.768 2.622 2.421-.84-1.652-1.782z"/>
        <path d="M21.27 22.835a.358.358 0 0 1-.233-.1.353.353 0 0 1-.098-.251.375.375 0 0 1 .098-.25l10.788-11.629a.318.318 0 0 1 .233-.104c.087 0 .17.038.233.104a.37.37 0 0 1 .096.25.37.37 0 0 1-.096.252L21.502 22.735a.358.358 0 0 1-.232.1zM19.442 19.21a.299.299 0 0 1-.197-.066.34.34 0 0 1-.117-.185 8.852 8.852 0 0 1-.326-2.42c.003-2.282.846-4.469 2.342-6.082 1.497-1.613 3.525-2.52 5.642-2.524.763 0 1.523.113 2.258.339.081.029.15.09.191.172a.39.39 0 0 1 .03.267.362.362 0 0 1-.06.122.332.332 0 0 1-.098.089.31.31 0 0 1-.25.027 6.766 6.766 0 0 0-2.071-.326c-1.944.003-3.807.837-5.181 2.318-1.374 1.482-2.148 3.49-2.151 5.585.003.755.1 1.506.291 2.232a.364.364 0 0 1-.022.26.335.335 0 0 1-.078.104.308.308 0 0 1-.11.063l-.093.025zM26.786 25.143a7.266 7.266 0 0 1-2.258-.351.305.305 0 0 1-.116-.06.358.358 0 0 1-.105-.378.362.362 0 0 1 .06-.123.334.334 0 0 1 .097-.089.31.31 0 0 1 .25-.027c.673.216 1.37.326 2.072.326 1.943-.004 3.806-.837 5.18-2.319 1.375-1.48 2.148-3.489 2.152-5.584 0-.756-.102-1.508-.303-2.233a.377.377 0 0 1 .026-.269.35.35 0 0 1 .081-.106.318.318 0 0 1 .114-.064.315.315 0 0 1 .248.032.358.358 0 0 1 .16.207c.2.792.299 1.611.29 2.433-.003 2.275-.84 4.456-2.329 6.068-1.489 1.612-3.509 2.524-5.62 2.537z"/>
        <path d="M28.264 26.661h-2.956a.977.977 0 0 1-.716-.32 1.136 1.136 0 0 1-.297-.771v-1.117c0-.093.035-.182.096-.248a.314.314 0 0 1 .23-.103.327.327 0 0 1 .228.107c.06.065.095.152.098.244v1.117c0 .103.038.202.106.275.067.073.16.114.255.114h2.956a.348.348 0 0 0 .255-.114.405.405 0 0 0 .106-.275v-1.117a.382.382 0 0 1 .066-.209.34.34 0 0 1 .166-.13c.498-.148.979-.359 1.432-.627a.321.321 0 0 1 .384 0l.733.79a.339.339 0 0 0 .512 0l2.095-2.257a.393.393 0 0 0 .107-.276.415.415 0 0 0-.107-.276l-.733-.79a.362.362 0 0 1-.058-.414c.247-.49.446-1.008.593-1.543a.363.363 0 0 1 .12-.18.322.322 0 0 1 .194-.071h1.036a.346.346 0 0 0 .254-.106.378.378 0 0 0 .107-.27v-3.149a.405.405 0 0 0-.106-.275.348.348 0 0 0-.255-.114H34.13a.315.315 0 0 1-.23-.102.366.366 0 0 1-.096-.249.364.364 0 0 1 .092-.252.314.314 0 0 1 .108-.076.294.294 0 0 1 .126-.023h1.036c.269 0 .526.115.716.32.19.204.297.482.297.771v3.199a1.134 1.134 0 0 1-.301.763.976.976 0 0 1-.712.316h-.803a6.919 6.919 0 0 1-.454 1.191l.559.615c.095.1.17.218.222.35a1.138 1.138 0 0 1 0 .83 1.07 1.07 0 0 1-.222.35l-2.06 2.27c-.195.194-.45.3-.716.3-.265 0-.52-.106-.715-.3l-.56-.614a6.872 6.872 0 0 1-1.163.502v.853c0 .285-.103.559-.288.763a.98.98 0 0 1-.701.328zM19.442 19.223h-1a.977.977 0 0 1-.712-.316 1.135 1.135 0 0 1-.3-.763v-3.199c0-.29.106-.567.296-.771a.977.977 0 0 1 .716-.32h.791c.124-.41.28-.81.466-1.192l-.594-.627a1.073 1.073 0 0 1-.226-.355 1.136 1.136 0 0 1-.077-.423 1.11 1.11 0 0 1 .078-.416c.052-.132.129-.25.225-.349l2.095-2.22a.986.986 0 0 1 .71-.308c.264 0 .519.11.71.308l.57.602a6.81 6.81 0 0 1 1.164-.49v-.877c.003-.288.11-.562.3-.764a.976.976 0 0 1 .712-.315h2.956c.267 0 .522.113.712.315.19.202.298.476.3.764v1.116a.363.363 0 0 1-.091.252.314.314 0 0 1-.108.076.294.294 0 0 1-.126.023.315.315 0 0 1-.23-.103.366.366 0 0 1-.096-.248V7.507a.404.404 0 0 0-.106-.271.348.348 0 0 0-.118-.08.327.327 0 0 0-.137-.026h-3.014a.326.326 0 0 0-.137.025.348.348 0 0 0-.117.081.38.38 0 0 0-.107.27v1.117a.357.357 0 0 1-.061.213.314.314 0 0 1-.172.126 7.127 7.127 0 0 0-1.431.64.3.3 0 0 1-.192.07.3.3 0 0 1-.192-.07l-.733-.79a.362.362 0 0 0-.118-.086.338.338 0 0 0-.394.085l-2.049 2.208a.362.362 0 0 0-.105.264.388.388 0 0 0 .105.275l.734.79a.361.361 0 0 1 .058.414 7.865 7.865 0 0 0-.594 1.543.364.364 0 0 1-.12.18.322.322 0 0 1-.194.071h-1.047a.348.348 0 0 0-.255.114.404.404 0 0 0-.106.275v3.199a.402.402 0 0 0 .106.27.346.346 0 0 0 .255.106h1.035a.326.326 0 0 1 .228.106c.06.066.095.153.098.245a.374.374 0 0 1-.107.263.32.32 0 0 1-.118.073.303.303 0 0 1-.136.016z"/>
        <path d="M20.827 18.909a.322.322 0 0 1-.194-.071.365.365 0 0 1-.12-.18 7.634 7.634 0 0 1-.062-3.806 7.245 7.245 0 0 1 1.771-3.293 6.467 6.467 0 0 1 3.095-1.834 6.132 6.132 0 0 1 3.529.152c.08.032.144.095.181.177a.376.376 0 0 1 .017.262.348.348 0 0 1-.06.122.32.32 0 0 1-.099.086.298.298 0 0 1-.249.018 5.436 5.436 0 0 0-1.85-.326c-1.57.004-3.075.677-4.185 1.874-1.11 1.197-1.736 2.819-1.739 4.51a6.556 6.556 0 0 0 .28 1.908.379.379 0 0 1-.026.269.348.348 0 0 1-.082.106.317.317 0 0 1-.113.064l-.094-.038zM26.786 23.625a6.218 6.218 0 0 1-2.083-.3.35.35 0 0 1-.182-.184.39.39 0 0 1-.016-.268.346.346 0 0 1 .062-.118.318.318 0 0 1 .1-.082.295.295 0 0 1 .245-.013 5.622 5.622 0 0 0 1.874.326c1.57-.004 3.075-.677 4.185-1.874 1.11-1.197 1.735-2.819 1.738-4.511a7.009 7.009 0 0 0-.302-1.894.375.375 0 0 1 .03-.262.332.332 0 0 1 .191-.165.293.293 0 0 1 .249.018.32.32 0 0 1 .1.086.349.349 0 0 1 .058.122c.186.659.28 1.344.28 2.032-.003 1.87-.69 3.663-1.913 4.99-1.223 1.327-2.881 2.08-4.616 2.097z"/>
        <path d="M46.593 39.067H5.303c-.262 0-.52-.056-.762-.163a1.988 1.988 0 0 1-.646-.465 2.164 2.164 0 0 1-.431-.696c-.1-.26-.151-.54-.151-.821V4.158c0-.57.209-1.117.582-1.522A1.933 1.933 0 0 1 5.303 2h41.29a1.933 1.933 0 0 1 1.408.636c.373.405.582.951.582 1.522v32.764c0 .282-.051.56-.151.82-.1.26-.247.497-.431.697-.185.199-.405.357-.646.465-.242.107-.5.163-.762.163zM5.303 2.803c-.165 0-.328.035-.48.103-.152.068-.29.168-.405.294a1.355 1.355 0 0 0-.27.44c-.061.164-.092.34-.09.518v32.764c0 .356.13.697.364.949.234.252.55.393.88.393h41.291c.33 0 .647-.141.88-.393.234-.252.366-.593.366-.95V4.159a1.433 1.433 0 0 0-.092-.518 1.355 1.355 0 0 0-.27-.44 1.244 1.244 0 0 0-.404-.294 1.168 1.168 0 0 0-.48-.103H5.303z"/>
        <path d="M31.36 45H20.547a.36.36 0 0 1-.16-.035.387.387 0 0 1-.13-.103.454.454 0 0 1-.082-.326l.873-5.933a.41.41 0 0 1 .127-.244.356.356 0 0 1 .245-.095h9.066a.358.358 0 0 1 .237.099c.066.062.11.147.123.24l.873 5.895v.1a.419.419 0 0 1-.105.28.361.361 0 0 1-.255.122zm-10.381-.803h9.938l-.745-5.13h-8.437l-.756 5.13z"/>
        <path d="M38.121 45H13.786a.36.36 0 0 1-.263-.118.418.418 0 0 1-.109-.283c0-.107.04-.209.11-.284a.36.36 0 0 1 .263-.118H38.12a.36.36 0 0 1 .263.118c.07.075.11.177.11.284 0 .106-.04.208-.11.283a.36.36 0 0 1-.263.118zM25.948 37.123a1.89 1.89 0 0 1-1.106-.362 2.119 2.119 0 0 1-.733-.963 2.3 2.3 0 0 1-.113-1.239c.077-.416.266-.798.545-1.098a1.95 1.95 0 0 1 1.019-.587c.386-.083.786-.04 1.15.122.363.162.674.437.892.79a2.29 2.29 0 0 1 .184 2.013c-.1.26-.246.496-.431.695-.185.2-.404.358-.646.465-.241.108-.5.163-.761.163zm0-3.488c-.247 0-.487.08-.692.227a1.325 1.325 0 0 0-.459.602 1.44 1.44 0 0 0-.07.775c.048.26.166.5.34.688.174.187.396.315.638.367.241.052.492.025.72-.076a1.27 1.27 0 0 0 .558-.495c.137-.22.21-.48.21-.745a1.437 1.437 0 0 0-.085-.526 1.358 1.358 0 0 0-.267-.448 1.245 1.245 0 0 0-.408-.3 1.168 1.168 0 0 0-.485-.106v.037z"/>
        <path d="M46.593 39.067H5.303c-.262 0-.52-.056-.762-.163a1.988 1.988 0 0 1-.646-.465 2.164 2.164 0 0 1-.431-.696c-.1-.26-.151-.54-.151-.821v-5.72a.411.411 0 0 1 .124-.252.357.357 0 0 1 .248-.1H48.21a.36.36 0 0 1 .263.118c.07.076.11.178.11.284v5.72a2.227 2.227 0 0 1-.6 1.484c-.372.392-.87.611-1.39.61zM4.057 31.603v5.319c0 .356.132.697.365.949.234.252.55.393.88.393h41.291c.33 0 .647-.141.88-.393.234-.252.366-.593.366-.95v-5.318H4.057z"/>
    </g>
    <defs>
        <clipPath id="nlo0mxxbha">
            <path fill="#fff" transform="translate(3.313 2)" d="M0 0h45.271v43H0z"/>
        </clipPath>
    </defs>
</svg>
