<svg width="53" height="48" viewBox="0 0 53 48" fill="none" xmlns="http://www.w3.org/2000/svg">
    <g clip-path="url(#jtwdpvogla)" fill="#56828F">
        <path d="M12.516 44.926H9.805a.712.712 0 0 1-.48-.181.592.592 0 0 1-.198-.438V33.928c0-.164.072-.321.199-.437a.712.712 0 0 1 .479-.181h2.71c.18 0 .353.065.48.181a.592.592 0 0 1 .198.437v10.38a.592.592 0 0 1-.198.437.712.712 0 0 1-.48.18zm-2.074-1.237h1.355v-9.13h-1.355v9.13zM11.025 10.993a5.148 5.148 0 0 1-2.29-.544 4.825 4.825 0 0 1-1.51-1.111 4.344 4.344 0 0 1-.917-1.561 4.027 4.027 0 0 1-.184-1.744 4.124 4.124 0 0 1 .577-1.67c.386-.649.94-1.2 1.616-1.607a5.233 5.233 0 0 1 2.255-.722 5.347 5.347 0 0 1 2.361.333 4.908 4.908 0 0 1 1.912 1.308 4.33 4.33 0 0 1 1.01 1.976c.154.725.11 1.473-.129 2.178a4.438 4.438 0 0 1-1.237 1.865c-.574.52-1.28.902-2.055 1.114a5.432 5.432 0 0 1-1.41.185zm0-7.756c-.344 0-.686.041-1.017.124-.902.258-1.66.826-2.114 1.583a3.024 3.024 0 0 0-.285 2.474c.27.83.89 1.528 1.724 1.941a3.886 3.886 0 0 0 2.722.261c.832-.215 1.55-.7 2.021-1.363.47-.663.66-1.46.534-2.241-.127-.781-.56-1.494-1.22-2.006a3.778 3.778 0 0 0-2.365-.773z"/>
        <path d="M23.034 44.926a2.762 2.762 0 0 1-1.86-.703 2.299 2.299 0 0 1-.77-1.697V32.209a.125.125 0 0 0-.012-.055.136.136 0 0 0-.036-.046.164.164 0 0 0-.114-.035h-9.23c-.72 0-1.41-.26-1.918-.725a2.37 2.37 0 0 1-.794-1.75V14.929a3.182 3.182 0 0 1 .309-1.387 3.46 3.46 0 0 1 .893-1.155 3.852 3.852 0 0 1 1.328-.73 4.106 4.106 0 0 1 1.537-.18c.957.098 1.84.516 2.478 1.174.639.659.987 1.51.978 2.389v2.103l1.193 1.422a.343.343 0 0 0 .166.101.371.371 0 0 0 .2-.002l5.19-1.41a2.017 2.017 0 0 1 1.356.136c.213.101.401.242.553.412.151.17.263.367.328.578a1.538 1.538 0 0 1-.07 1.317c-.109.204-.262.385-.45.533-.189.148-.408.259-.645.327l-6.777 1.855a1.76 1.76 0 0 1-.95 0v4.553c0 .095.042.186.116.254a.413.413 0 0 0 .278.105h7.333c.259-.002.516.043.756.133.24.089.458.22.642.387s.33.366.43.584c.1.218.15.453.15.69v13.409a2.374 2.374 0 0 1-.777 1.664 2.836 2.836 0 0 1-1.811.736zm-11.02-32.164a2.473 2.473 0 0 0-1.626.582c-.248.207-.446.459-.579.74-.133.282-.2.586-.194.893v14.622c0 .328.143.642.397.875.254.231.6.362.958.362h9.23c.404 0 .79.146 1.074.406.285.26.445.612.445.98v10.316c0 .309.134.605.373.823.24.218.563.34.901.34.338 0 .662-.122.901-.34.239-.218.373-.514.373-.823V29.054a.533.533 0 0 0-.178-.393.64.64 0 0 0-.432-.163h-7.414c-.465 0-.911-.168-1.241-.467a1.542 1.542 0 0 1-.52-1.13v-5.628l-2.088-2.288a.588.588 0 0 1 .095-.878.707.707 0 0 1 .235-.115c.086-.024.176-.032.265-.024.18.016.347.097.462.225l2.223 2.474.366.42a.372.372 0 0 0 .168.097.401.401 0 0 0 .198.003l6.777-1.856a.455.455 0 0 0 .273-.201.388.388 0 0 0 .039-.318.494.494 0 0 0-.23-.26.486.486 0 0 0-.353 0l-5.191 1.41c-.337.07-.689.046-1.01-.068a1.704 1.704 0 0 1-.793-.575L13.329 16.3a.6.6 0 0 1-.125-.464.633.633 0 0 1 .26-.414.725.725 0 0 1 .95.111V15.1a2.17 2.17 0 0 0-.603-1.544 2.584 2.584 0 0 0-1.58-.781l-.217-.013z"/>
        <path d="M47.906 25.751H17.87a.757.757 0 0 1-.304-.006.718.718 0 0 1-.27-.124.642.642 0 0 1-.187-.218.586.586 0 0 1 0-.54.642.642 0 0 1 .186-.218.718.718 0 0 1 .271-.124.757.757 0 0 1 .304-.007h30.036a.705.705 0 0 1 .398.22.598.598 0 0 1 .157.399.598.598 0 0 1-.157.4.705.705 0 0 1-.398.218zM16.216 34.56H6.593a1.523 1.523 0 0 1-1.012-.388 1.269 1.269 0 0 1-.425-.924v-1.794c0-.167.073-.328.202-.446a.726.726 0 0 1 .49-.185h10.368c.379.004.74.143 1.007.389.267.245.416.577.416.923v1.113c0 .346-.15.677-.416.923a1.508 1.508 0 0 1-1.007.388zm-9.691-2.475v1.237h9.623a.073.073 0 0 0 .068 0V32.21a.06.06 0 0 0-.02-.044.071.071 0 0 0-.048-.018l-9.623-.062zM12.516 44.926H9.805a.712.712 0 0 1-.48-.181.592.592 0 0 1-.198-.438c0-.164.072-.321.199-.437a.712.712 0 0 1 .479-.181h2.71c.18 0 .353.065.48.18a.592.592 0 0 1 .198.438.592.592 0 0 1-.198.438.712.712 0 0 1-.48.18z"/>
        <path d="M36.439 45h-7.116a.712.712 0 0 1-.48-.181.593.593 0 0 1-.198-.438V25.195c0-.164.072-.322.199-.438a.712.712 0 0 1 .479-.18h7.116c.18 0 .352.064.479.18a.593.593 0 0 1 .199.438V44.38a.593.593 0 0 1-.199.438.712.712 0 0 1-.48.18zm-6.425-1.237h5.747v-17.95h-5.747v17.95zM5.847 32.073a.727.727 0 0 1-.484-.18.606.606 0 0 1-.207-.439v-3.909a33.013 33.013 0 0 0-1.844-10.787.581.581 0 0 1 .05-.473.678.678 0 0 1 .398-.306.738.738 0 0 1 .52.041c.08.038.15.09.207.153.057.063.1.136.127.214A34.146 34.146 0 0 1 6.498 27.52v3.91a.6.6 0 0 1-.183.44.72.72 0 0 1-.468.203zM25.555 23.673a.707.707 0 0 1-.412-.126.605.605 0 0 1-.239-.332l-2.195-7.088a.555.555 0 0 1 .056-.476.628.628 0 0 1 .176-.185.693.693 0 0 1 .242-.106.736.736 0 0 1 .515.052.633.633 0 0 1 .325.369l2.196 7.1a.567.567 0 0 1-.061.474.64.64 0 0 1-.175.185.706.706 0 0 1-.238.108l-.19.025z"/>
        <path d="M32.427 25.752h-11.02a1.21 1.21 0 0 1-.801-.308 1.008 1.008 0 0 1-.337-.732v-1.237c.003-.274.124-.537.337-.73.213-.195.5-.306.801-.309h11.02c.3.003.588.114.8.308.214.194.335.457.338.731v1.237a1.008 1.008 0 0 1-.337.732 1.21 1.21 0 0 1-.801.308zm-10.844-1.238h10.56v-.828H21.637l-.055.828zM45.33 25.752h-8.227a.726.726 0 0 1-.475-.185.606.606 0 0 1-.203-.434v-3.13c0-.165.071-.324.198-.442a.725.725 0 0 1 .48-.189h8.227c.637 0 1.247.231 1.697.642.45.41.702.967.702 1.548 0 .58-.252 1.137-.702 1.548a2.52 2.52 0 0 1-1.697.642zm-7.59-1.238h7.59c.274 0 .536-.099.729-.275a.9.9 0 0 0 .302-.665.9.9 0 0 0-.302-.665 1.082 1.082 0 0 0-.729-.275h-7.59v1.88z"/>
        <path d="M43.568 22.622H35.3a.712.712 0 0 1-.479-.181.593.593 0 0 1-.198-.438v-3.13a.571.571 0 0 1 .047-.24.616.616 0 0 1 .146-.205.682.682 0 0 1 .222-.137.731.731 0 0 1 .262-.048h8.268c.637 0 1.247.23 1.697.64.45.412.702.968.702 1.55 0 .58-.252 1.137-.702 1.547a2.52 2.52 0 0 1-1.697.642zm-7.59-1.237h7.59c.274 0 .535-.1.729-.276a.9.9 0 0 0 .301-.665.9.9 0 0 0-.301-.664 1.082 1.082 0 0 0-.729-.276h-7.59v1.88z"/>
    </g>
    <defs>
        <clipPath id="jtwdpvogla">
            <path fill="#fff" transform="translate(3.313 2)" d="M0 0h45.271v43H0z"/>
        </clipPath>
    </defs>
</svg>
