<svg width="53" height="48" viewBox="0 0 53 48" fill="none" xmlns="http://www.w3.org/2000/svg">
    <g clip-path="url(#jqoxt7hw7a)" fill="#56828F">
        <path d="M48.323 44.715a.96.96 0 0 0 .192-.315c.045-.119.068-.247.068-.377V17.661a.863.863 0 0 0 0-.18v-.12c-.002-.05-.002-.1 0-.15L39.992 2.435 39.9 2.3l-.13-.136h-.117a.192.192 0 0 0-.13 0H9.876a.764.764 0 0 0-.466.158.954.954 0 0 0-.314.429L3.39 17.255a.555.555 0 0 0 0 .135v.18h-.078v26.513c0 .13.023.258.066.378.043.12.107.227.187.318s.174.163.278.211a.745.745 0 0 0 .327.07h43.555a.769.769 0 0 0 .33-.103.89.89 0 0 0 .268-.242zM32.726 43.03H5.016V18.638h27.71V43.03zm.3-26.362H5.482l3.172-8.161h6.966a.792.792 0 0 0 .598-.286 1.06 1.06 0 0 0 .247-.691 1.13 1.13 0 0 0-.056-.385 1.023 1.023 0 0 0-.181-.33.868.868 0 0 0-.277-.224.76.76 0 0 0-.33-.083h-6.2l1-2.57h27.555l-3.184 8.191h-8.085a.791.791 0 0 0-.597.286 1.06 1.06 0 0 0-.248.691c0 .26.089.51.247.696a.806.806 0 0 0 .598.296h7.357l-1.04 2.57zm1.403 26.362v-25.16l5.004-12.865 6.68 11.648h-4.25a.828.828 0 0 0-.537.328 1.086 1.086 0 0 0-.215.656c0 .242.077.476.215.657.139.182.33.298.538.328h4.99v24.393l-12.425.015z"/>
        <path d="M38.887 16.669h-2.21a.747.747 0 0 0-.359.037.835.835 0 0 0-.314.204.997.997 0 0 0-.214.336 1.126 1.126 0 0 0 0 .815c.05.128.123.243.214.336a.835.835 0 0 0 .314.204.747.747 0 0 0 .36.037h2.21a.829.829 0 0 0 .537-.328c.138-.18.215-.415.215-.656 0-.242-.077-.476-.215-.657a.829.829 0 0 0-.538-.328zM26.994 23.042h1.989v2.3c.026.24.126.46.283.62.157.16.359.25.568.25.21 0 .411-.09.568-.25.157-.16.258-.38.284-.62V21.99c0-.13-.023-.258-.066-.378a.994.994 0 0 0-.187-.319.845.845 0 0 0-.278-.21.745.745 0 0 0-.327-.07h-2.834a.792.792 0 0 0-.597.286 1.06 1.06 0 0 0-.248.69c-.007.134.01.269.049.395.039.127.1.242.179.34a.873.873 0 0 0 .28.232c.107.055.221.084.337.086zM17.61 23.042h1.989v2.3c.003.26.095.508.255.69.16.184.377.286.602.286a.791.791 0 0 0 .598-.286 1.06 1.06 0 0 0 .247-.69V21.99c0-.26-.089-.508-.247-.691a.791.791 0 0 0-.598-.286H17.61a.791.791 0 0 0-.598.286 1.06 1.06 0 0 0-.247.69c-.007.134.01.269.049.395.039.127.1.242.179.34a.874.874 0 0 0 .28.232.76.76 0 0 0 .337.086zM8.213 23.042H10.2v2.3c0 .258.09.507.248.69a.791.791 0 0 0 .597.286.802.802 0 0 0 .602-.285c.16-.183.253-.431.256-.692V21.99a1.08 1.08 0 0 0-.232-.667.818.818 0 0 0-.56-.31h-2.9a.803.803 0 0 0-.601.285c-.16.183-.253.431-.256.692-.005.134.013.269.053.395.041.127.103.242.183.34.08.099.176.177.283.231a.772.772 0 0 0 .339.086zM26.994 30.18h1.989v2.3c.026.24.126.461.283.622.157.16.359.248.568.248.21 0 .411-.088.568-.248.157-.16.258-.382.284-.622v-3.276c.001-.131-.02-.26-.062-.382a1 1 0 0 0-.186-.324.846.846 0 0 0-.28-.215.746.746 0 0 0-.33-.071h-2.834a.83.83 0 0 0-.537.327 1.085 1.085 0 0 0-.215.657c0 .242.076.476.215.657.138.181.33.298.537.328zM17.61 30.18h1.989v2.3c.003.26.095.51.255.692.16.183.377.285.602.285a.792.792 0 0 0 .598-.286 1.06 1.06 0 0 0 .247-.69v-3.277a1.114 1.114 0 0 0-.06-.379 1.004 1.004 0 0 0-.183-.322.85.85 0 0 0-.275-.215.746.746 0 0 0-.327-.076H17.61a.829.829 0 0 0-.537.327 1.085 1.085 0 0 0-.216.657c0 .242.077.476.216.657.138.181.33.298.537.328zM8.213 30.18H10.2v2.3c0 .26.09.508.248.691a.791.791 0 0 0 .597.286.802.802 0 0 0 .602-.285c.16-.183.252-.431.256-.692v-3.276c0-.25-.08-.492-.228-.676a.818.818 0 0 0-.565-.316H8.213a.748.748 0 0 0-.36.037.836.836 0 0 0-.314.204.996.996 0 0 0-.214.336 1.125 1.125 0 0 0 0 .815c.05.128.123.242.214.336a.835.835 0 0 0 .314.204.75.75 0 0 0 .36.037zM26.994 37.38h1.989v2.3a1.14 1.14 0 0 0 .032.415c.036.134.096.258.177.363.08.106.179.19.29.248a.76.76 0 0 0 .705 0 .878.878 0 0 0 .29-.248c.08-.105.14-.229.177-.363a1.14 1.14 0 0 0 .032-.416v-3.276c0-.263-.09-.515-.252-.701a.803.803 0 0 0-.606-.29h-2.834a.806.806 0 0 0-.598.295 1.077 1.077 0 0 0-.247.696c0 .26.09.508.248.69a.791.791 0 0 0 .597.287zM17.61 37.38h1.989v2.3c.003.261.094.511.255.697.16.185.376.29.602.294a.807.807 0 0 0 .599-.295c.158-.186.246-.436.246-.697v-3.276c0-.26-.088-.51-.246-.696a.806.806 0 0 0-.599-.296H17.61a.806.806 0 0 0-.598.296 1.077 1.077 0 0 0-.247.696c0 .26.09.508.248.69a.791.791 0 0 0 .597.287zM8.213 37.38H10.2v2.3c0 .26.089.51.247.696a.806.806 0 0 0 .598.296.818.818 0 0 0 .603-.295 1.09 1.09 0 0 0 .255-.698v-3.276a1.098 1.098 0 0 0-.231-.672.833.833 0 0 0-.562-.32H8.213a.818.818 0 0 0-.603.295 1.073 1.073 0 0 0 0 1.389c.161.183.377.285.603.285zM23.732 12.13H21.73a.745.745 0 0 0-.327.07.846.846 0 0 0-.279.21c-.08.092-.143.2-.186.32a1.113 1.113 0 0 0 .186 1.078c.16.186.379.291.606.291h2.002a.818.818 0 0 0 .603-.295 1.072 1.072 0 0 0 0-1.389.802.802 0 0 0-.603-.285zM22.575 7.53a1.13 1.13 0 0 0-.057-.384 1.023 1.023 0 0 0-.18-.33.87.87 0 0 0-.278-.224.76.76 0 0 0-.33-.083h-2.704a.758.758 0 0 0-.328.075.86.86 0 0 0-.278.215c-.08.093-.143.202-.186.322a1.128 1.128 0 0 0 0 .757c.043.12.107.228.187.319s.174.163.278.21a.745.745 0 0 0 .327.07h2.704a.79.79 0 0 0 .588-.275c.158-.176.25-.417.257-.671z"/>
    </g>
    <defs>
        <clipPath id="jqoxt7hw7a">
            <path fill="#fff" transform="translate(3.313 2)" d="M0 0h45.271v43H0z"/>
        </clipPath>
    </defs>
</svg>
