<svg width="53" height="48" viewBox="0 0 53 48" fill="none" xmlns="http://www.w3.org/2000/svg">
    <g clip-path="url(#cysz0x99wa)" fill="#56828F">
        <path d="M15.228 31.896a.727.727 0 0 1-.301-.068.68.68 0 0 1-.24-.184c-2.08-2.391-3.212-5.383-3.201-8.466 0-3.159 1.181-6.218 3.34-8.648 2.158-2.43 5.156-4.076 8.476-4.655 3.32-.58 6.752-.054 9.701 1.485 2.95 1.539 5.23 3.994 6.448 6.94a.636.636 0 0 1-.017.517.705.705 0 0 1-.402.355.77.77 0 0 1-.553-.015.697.697 0 0 1-.38-.377c-1.115-2.635-3.176-4.825-5.829-6.195a13.852 13.852 0 0 0-8.71-1.316c-2.98.52-5.673 1.991-7.62 4.164-1.946 2.173-3.024 4.91-3.05 7.745.006 2.762 1.027 5.44 2.892 7.581a.639.639 0 0 1-.108.923.72.72 0 0 1-.446.215zM36.668 31.897a.69.69 0 0 1-.432-.152.628.628 0 0 1-.108-.922c.28-.32.542-.653.783-.999a.668.668 0 0 1 .188-.182.715.715 0 0 1 .52-.102c.09.015.175.048.251.095.155.093.264.24.304.407a.621.621 0 0 1-.088.49c-.27.392-.567.758-.864 1.112a.723.723 0 0 1-.247.184.77.77 0 0 1-.307.069zM38.586 28.927a.648.648 0 0 1-.27 0 .693.693 0 0 1-.227-.143.644.644 0 0 1-.15-.214.608.608 0 0 1 .012-.502c.288-.63.519-1.28.69-1.946a.638.638 0 0 1 .116-.232.686.686 0 0 1 .203-.173.734.734 0 0 1 .531-.075c.09.017.176.052.25.102a.65.65 0 0 1 .188.186.607.607 0 0 1 .076.495c-.193.723-.45 1.429-.77 2.11a.7.7 0 0 1-.265.283.766.766 0 0 1-.384.11zm1.095-4.182a.72.72 0 0 1-.477-.224.631.631 0 0 1-.172-.471v-.86c0-.29 0-.808-.067-1.263a.63.63 0 0 1 .162-.476.72.72 0 0 1 .472-.232.734.734 0 0 1 .508.143c.07.054.129.12.172.196a.615.615 0 0 1 .077.242c.05.441.072.884.068 1.327v.948a.622.622 0 0 1-.053.264.657.657 0 0 1-.162.223.713.713 0 0 1-.244.143.748.748 0 0 1-.285.04z"/>
        <path d="M39.235 20.436a.721.721 0 0 1-.426-.131.644.644 0 0 1-.25-.35 12.239 12.239 0 0 0-.419-1.174.636.636 0 0 1 .017-.518.705.705 0 0 1 .402-.354.768.768 0 0 1 .553.015.697.697 0 0 1 .38.376c.175.43.324.872.459 1.264a.62.62 0 0 1-.07.49.697.697 0 0 1-.417.306.508.508 0 0 1-.23.076z"/>
        <path d="M42.355 37.507a.732.732 0 0 1-.5-.19.636.636 0 0 1-.202-.46c0-.173.073-.34.203-.462l1.27-1.188a.266.266 0 0 0 .068-.089.25.25 0 0 0-.069-.303l-2.512-2.35a1.098 1.098 0 0 1-.353-.672c-.032-.255.03-.513.177-.73a14.916 14.916 0 0 0 1.743-3.955c.068-.241.218-.454.428-.607a1.27 1.27 0 0 1 .734-.24h3.553c.078 0 .154-.03.21-.081a.27.27 0 0 0 .087-.197v-5.66a.269.269 0 0 0-.087-.197.308.308 0 0 0-.21-.082h-3.553c-.265 0-.523-.082-.733-.232a1.124 1.124 0 0 1-.43-.602 14.812 14.812 0 0 0-1.742-3.968 1.053 1.053 0 0 1 .176-1.352l2.513-2.35a.253.253 0 0 0 .064-.092.238.238 0 0 0 .017-.11.213.213 0 0 0-.017-.104.228.228 0 0 0-.064-.086l-4.31-4.03a.311.311 0 0 0-.216-.064.286.286 0 0 0-.203.089l-2.513 2.312a1.267 1.267 0 0 1-1.5.126 17.733 17.733 0 0 0-4.228-1.642 1.213 1.213 0 0 1-.647-.394 1.08 1.08 0 0 1-.258-.68V3.592a.26.26 0 0 0-.056-.22.313.313 0 0 0-.214-.108H22.9a.315.315 0 0 0-.21.081.277.277 0 0 0-.087.197v3.373c0 .246-.088.485-.25.68a1.198 1.198 0 0 1-.641.394 17.635 17.635 0 0 0-4.242 1.593 1.254 1.254 0 0 1-1.446-.127l-2.513-2.337a.301.301 0 0 0-.419 0l-4.309 4.03a.238.238 0 0 0-.068.19c0 .038.01.075.025.11a.28.28 0 0 0 .07.092l2.472 2.35a1.056 1.056 0 0 1 .135 1.352 15.295 15.295 0 0 0-1.756 3.968 1.11 1.11 0 0 1-.422.6c-.208.151-.463.234-.726.234h-3.5a.317.317 0 0 0-.245.061.28.28 0 0 0-.079.098.263.263 0 0 0-.026.12v5.685a.25.25 0 0 0 .082.2.287.287 0 0 0 .215.078h3.607c.264.004.52.088.727.241.208.154.356.366.421.606.378 1.375.95 2.696 1.702 3.93.135.215.19.465.155.712a1.099 1.099 0 0 1-.344.652l-2.445 2.426a.266.266 0 0 0-.068.09.25.25 0 0 0 .068.302l1.256 1.188a.64.64 0 0 1 .175.21.6.6 0 0 1-.148.738.728.728 0 0 1-.493.189.728.728 0 0 1-.493-.19l-1.297-1.263a1.542 1.542 0 0 1-.497-1.125c0-.421.179-.826.497-1.124l2.405-2.237a15.978 15.978 0 0 1-1.783-4.03H5.015a1.79 1.79 0 0 1-.654-.118 1.7 1.7 0 0 1-.554-.345 1.575 1.575 0 0 1-.369-.519 1.49 1.49 0 0 1-.125-.61v-5.687c0-.422.179-.827.498-1.126.32-.298.752-.466 1.204-.466h3.39a16.09 16.09 0 0 1 1.784-4.018l-2.405-2.25a1.566 1.566 0 0 1-.5-1.124 1.59 1.59 0 0 1 .5-1.125l4.31-4.03c.319-.298.751-.466 1.202-.466.451 0 .883.168 1.203.466l2.404 2.249A18.519 18.519 0 0 1 21.2 6.764V3.592c0-.209.044-.416.13-.61.085-.192.21-.368.369-.516.158-.147.346-.265.552-.345.207-.08.428-.121.651-.121h6.08c.224-.002.446.038.653.118a1.7 1.7 0 0 1 .555.345c.158.148.283.324.368.518.085.194.128.402.126.611v3.172c1.509.376 2.958.936 4.31 1.668l2.39-2.25a1.824 1.824 0 0 1 1.203-.445c.447 0 .877.16 1.203.446l4.323 4.03c.32.299.499.703.5 1.125a1.48 1.48 0 0 1-.129.61 1.565 1.565 0 0 1-.371.515l-2.392 2.249a17.14 17.14 0 0 1 1.784 4.018h3.39c.45.003.88.172 1.196.47.316.299.493.702.493 1.122v5.686a1.49 1.49 0 0 1-.124.609 1.574 1.574 0 0 1-.365.516 1.702 1.702 0 0 1-.55.346c-.206.08-.426.121-.65.121h-3.39a17.005 17.005 0 0 1-1.783 4.031l2.39 2.237c.32.298.498.703.498 1.124 0 .422-.179.827-.497 1.125l-1.27 1.188a.69.69 0 0 1-.222.147.73.73 0 0 1-.265.055z"/>
        <path d="M25.955 30.28a6.398 6.398 0 0 1-3.39-.956 5.801 5.801 0 0 1-2.25-2.557 5.358 5.358 0 0 1-.35-3.295 5.595 5.595 0 0 1 1.668-2.921 6.235 6.235 0 0 1 3.123-1.56 6.485 6.485 0 0 1 3.523.327 6.022 6.022 0 0 1 2.734 2.104 5.44 5.44 0 0 1 1.021 3.171c-.004 1.507-.645 2.951-1.785 4.017-1.139 1.066-2.683 1.666-4.294 1.67zm0-10.11a4.924 4.924 0 0 0-2.608.733 4.464 4.464 0 0 0-1.733 1.965 4.122 4.122 0 0 0-.272 2.535c.179.851.625 1.634 1.28 2.248a4.795 4.795 0 0 0 2.4 1.204 4.99 4.99 0 0 0 2.71-.248 4.635 4.635 0 0 0 2.106-1.615c.516-.72.79-1.57.791-2.437-.01-1.154-.508-2.258-1.383-3.071a4.858 4.858 0 0 0-3.291-1.276v-.038zM39.235 44.962H12.66a.727.727 0 0 1-.497-.192.636.636 0 0 1-.205-.465c-.002-2.868 1.004-5.658 2.86-7.94 1.858-2.283 4.464-3.933 7.42-4.696a.733.733 0 0 1 .536.056c.08.042.152.1.208.168a.63.63 0 0 1 .121.231.62.62 0 0 1-.064.498.697.697 0 0 1-.422.31c-2.554.66-4.82 2.056-6.48 3.988-1.658 1.932-2.624 4.304-2.76 6.779h25.14c-.15-2.46-1.121-4.815-2.776-6.733-1.655-1.917-3.91-3.301-6.45-3.958a.71.71 0 0 1-.426-.309.632.632 0 0 1-.074-.5c.05-.167.17-.308.331-.394a.746.746 0 0 1 .533-.06c2.956.763 5.563 2.413 7.42 4.695 1.857 2.283 2.862 5.073 2.861 7.94a.645.645 0 0 1-.232.417.731.731 0 0 1-.47.165z"/>
    </g>
    <defs>
        <clipPath id="cysz0x99wa">
            <path fill="#fff" transform="translate(3.313 2)" d="M0 0h45.271v43H0z"/>
        </clipPath>
    </defs>
</svg>
