<svg width="53" height="48" viewBox="0 0 53 48" fill="none" xmlns="http://www.w3.org/2000/svg">
    <g clip-path="url(#j5iprtdd2a)" fill="#56828F">
        <path d="M46.596 39.066H5.332a1.861 1.861 0 0 1-.77-.153 1.982 1.982 0 0 1-.656-.462 2.159 2.159 0 0 1-.44-.699 2.287 2.287 0 0 1-.154-.828V4.154c0-.572.211-1.12.586-1.523C4.272 2.227 4.78 2 5.31 2h41.263a1.929 1.929 0 0 1 1.406.635c.373.403.582.95.582 1.519v32.77a2.23 2.23 0 0 1-.575 1.507 1.92 1.92 0 0 1-1.39.635zM5.332 2.784a1.18 1.18 0 0 0-.491.098 1.256 1.256 0 0 0-.417.296c-.12.127-.214.28-.278.447a1.45 1.45 0 0 0-.095.529v32.77c0 .36.133.706.369.96.117.126.256.226.409.295.152.068.316.103.482.103h41.263c.334 0 .655-.143.891-.398.236-.254.37-.6.37-.96V4.154c0-.357-.13-.698-.362-.952a1.217 1.217 0 0 0-.877-.406L5.332 2.784z"/>
        <path d="M31.361 45H20.502a.326.326 0 0 1-.156-.034.353.353 0 0 1-.126-.106.435.435 0 0 1-.087-.328l.869-5.922a.407.407 0 0 1 .125-.245.353.353 0 0 1 .244-.095h9.089a.353.353 0 0 1 .243.095c.068.063.113.15.126.245l.869 5.852a.351.351 0 0 1 0 .105.427.427 0 0 1-.085.292.376.376 0 0 1-.113.098.35.35 0 0 1-.139.043zm-10.381-.808h9.947l-.76-5.126h-8.394l-.793 5.126z"/>
        <path d="M38.126 45H13.781a.366.366 0 0 1-.266-.116.425.425 0 0 1-.115-.282c0-.109.04-.213.112-.29a.367.367 0 0 1 .268-.12h24.346a.368.368 0 0 1 .262.124.427.427 0 0 1 0 .567.368.368 0 0 1-.12.087.346.346 0 0 1-.142.03zM25.953 37.112c-.393 0-.778-.126-1.105-.362a2.116 2.116 0 0 1-.732-.963 2.297 2.297 0 0 1-.11-1.24c.077-.415.267-.797.546-1.096.28-.299.634-.502 1.02-.583a1.855 1.855 0 0 1 1.15.126c.362.164.672.44.889.794.217.354.332.77.33 1.194a2.228 2.228 0 0 1-.586 1.506c-.373.4-.876.624-1.402.624zm0-3.512c-.247 0-.488.08-.693.227a1.33 1.33 0 0 0-.46.604c-.095.246-.12.517-.071.778.048.261.167.5.341.69.175.187.398.316.64.367.242.052.493.026.721-.076.229-.102.424-.274.56-.496.138-.221.211-.481.211-.748a1.4 1.4 0 0 0-.366-.951 1.205 1.205 0 0 0-.883-.395z"/>
        <path d="M46.596 39.066H5.332a1.861 1.861 0 0 1-.77-.153 1.979 1.979 0 0 1-.656-.462 2.157 2.157 0 0 1-.44-.699 2.287 2.287 0 0 1-.154-.828V31.26c0-.107.039-.21.108-.286a.368.368 0 0 1 .262-.124h44.521a.367.367 0 0 1 .262.124.427.427 0 0 1 .107.286v5.711a2.224 2.224 0 0 1-.593 1.48c-.369.392-.865.612-1.383.615zM4.062 31.611v5.313c0 .358.131.702.365.956.234.254.551.399.884.402h41.263c.334 0 .655-.143.891-.398.236-.254.37-.6.37-.96v-5.313H4.061zM24.433 11.667H10.175a.356.356 0 0 1-.26-.116.414.414 0 0 1-.109-.281c0-.106.04-.207.108-.282a.356.356 0 0 1 .261-.116h14.258c.098 0 .192.042.261.116.07.075.108.176.108.282a.414.414 0 0 1-.108.28.356.356 0 0 1-.26.117zM20.61 17.426H10.176a.352.352 0 0 1-.309-.091.408.408 0 0 1-.1-.14.437.437 0 0 1 .1-.486.373.373 0 0 1 .145-.082.352.352 0 0 1 .164-.009h10.436a.375.375 0 0 1 .226.14.43.43 0 0 1 0 .528.375.375 0 0 1-.226.14zM24.433 23.184H10.175a.37.37 0 0 1-.248-.132.428.428 0 0 1-.1-.278.425.425 0 0 1 .116-.282.366.366 0 0 1 .265-.116h14.225c.098 0 .192.042.261.117a.427.427 0 0 1 0 .567.368.368 0 0 1-.26.124zM31.785 12.966h-3.378a.325.325 0 0 1-.238-.106.378.378 0 0 1-.098-.256v-3.36a.389.389 0 0 1 .094-.264.337.337 0 0 1 .111-.081.315.315 0 0 1 .131-.029h3.378c.045 0 .09.01.13.029.042.019.08.047.111.081a.368.368 0 0 1 .095.265v3.359a.378.378 0 0 1-.099.256.325.325 0 0 1-.237.107zm-3.03-.725h2.682V9.607h-2.682v2.634zM31.785 19.556h-3.378a.325.325 0 0 1-.238-.107.378.378 0 0 1-.098-.256v-3.336c0-.096.035-.188.098-.256a.324.324 0 0 1 .238-.107h3.378c.089 0 .174.039.238.107.063.068.098.16.098.256v3.36a.375.375 0 0 1-.106.24.324.324 0 0 1-.23.099zm-3.03-.726h2.682v-2.61h-2.682v2.61zM31.785 25.642h-3.378a.325.325 0 0 1-.238-.107.378.378 0 0 1-.098-.256v-3.383c0-.096.035-.188.098-.256a.324.324 0 0 1 .238-.106h3.378c.089 0 .174.038.238.106.063.068.098.16.098.256v3.36a.39.39 0 0 1-.09.271.338.338 0 0 1-.112.085.314.314 0 0 1-.134.03zm-3.03-.726h2.682v-2.633h-2.682v2.633zM37.616 13.704a.3.3 0 0 1-.145-.054.33.33 0 0 1-.105-.122l-.77-1.44a.39.39 0 0 1-.034-.276.362.362 0 0 1 .158-.22.317.317 0 0 1 .257-.036c.086.025.16.086.205.17l.542 1.018 3.78-4.061a.328.328 0 0 1 .108-.083.305.305 0 0 1 .37.083.366.366 0 0 1 .099.257.387.387 0 0 1-.1.258l-4.126 4.354a.347.347 0 0 1-.104.104.32.32 0 0 1-.135.048zM37.616 20.106a.313.313 0 0 1-.147-.06.344.344 0 0 1-.103-.127l-.771-1.428a.4.4 0 0 1-.034-.278.374.374 0 0 1 .154-.226.325.325 0 0 1 .26-.032.353.353 0 0 1 .206.173l.543 1.018 3.78-4.073a.337.337 0 0 1 .109-.079.317.317 0 0 1 .368.08.37.37 0 0 1 .099.257.388.388 0 0 1-.099.257L37.898 20a.374.374 0 0 1-.282.106zM37.616 26.005a.301.301 0 0 1-.146-.054.332.332 0 0 1-.104-.122l-.77-1.428a.381.381 0 0 1 .13-.503.312.312 0 0 1 .253-.041.317.317 0 0 1 .117.063c.035.029.064.065.085.107l.543 1.018 3.78-4.061a.328.328 0 0 1 .108-.084.306.306 0 0 1 .37.084.367.367 0 0 1 .099.257.387.387 0 0 1-.1.258l-4.083 4.4a.344.344 0 0 1-.13.087.324.324 0 0 1-.152.019z"/>
    </g>
    <defs>
        <clipPath id="j5iprtdd2a">
            <path fill="#fff" transform="translate(3.313 2)" d="M0 0h45.271v43H0z"/>
        </clipPath>
    </defs>
</svg>
