<svg width="53" height="48" viewBox="0 0 53 48" fill="none" xmlns="http://www.w3.org/2000/svg">
    <g clip-path="url(#30luwz9nta)" fill="#56828F">
        <path d="M25.953 16.246c-.814.002-1.61-.325-2.287-.94-.677-.616-1.205-1.492-1.518-2.519a7.546 7.546 0 0 1-.237-3.246c.157-1.09.548-2.092 1.122-2.879.575-.787 1.307-1.323 2.105-1.54.797-.219 1.624-.108 2.376.316.751.425 1.394 1.145 1.846 2.07.452.923.693 2.01.693 3.12 0 1.488-.431 2.915-1.2 3.968-.769 1.053-1.812 1.646-2.9 1.65zm0-10.392c-.694-.003-1.373.276-1.95.801-.578.526-1.029 1.273-1.295 2.149a6.433 6.433 0 0 0-.202 2.769c.135.93.469 1.784.96 2.455.49.67 1.115 1.126 1.796 1.31.68.185 1.386.09 2.026-.275.641-.364 1.188-.98 1.572-1.77.385-.788.589-1.716.587-2.664-.003-1.265-.372-2.478-1.026-3.373-.655-.894-1.542-1.398-2.468-1.402z"/>
        <path d="M25.953 16.246c-.645-.003-1.281-.212-1.857-.612-.575-.4-1.073-.98-1.455-1.69a.53.53 0 0 1-.063-.257c0-.093.022-.183.063-.256.41-.645.917-1.161 1.486-1.515a3.413 3.413 0 0 1 1.811-.537c.625 0 1.243.183 1.812.537.568.354 1.075.87 1.485 1.515a.528.528 0 0 1 .064.256.528.528 0 0 1-.064.257c-.38.704-.873 1.279-1.443 1.678-.57.4-1.2.613-1.84.624zm-2.676-2.526c.328.531.737.959 1.198 1.252.461.293.964.445 1.473.445.509 0 1.011-.152 1.473-.445.461-.293.87-.72 1.198-1.252-.35-.48-.767-.86-1.225-1.12a2.92 2.92 0 0 0-1.446-.394c-.496 0-.988.133-1.446.393-.458.26-.875.641-1.225 1.121z"/>
        <path d="M25.953 11.55c-.37.002-.732-.145-1.04-.424-.309-.279-.55-.676-.692-1.142a3.427 3.427 0 0 1-.11-1.476c.07-.496.247-.952.508-1.31.261-.358.594-.602.956-.702.363-.1.739-.05 1.08.143.342.193.634.52.84.94.206.42.316.914.316 1.419 0 .674-.196 1.322-.544 1.8-.348.478-.82.748-1.314.752zm0-4.275c-.252-.003-.5.097-.71.287-.21.19-.374.46-.472.778a2.332 2.332 0 0 0-.075 1.006c.05.339.17.65.349.893.178.243.405.409.653.476a.96.96 0 0 0 .736-.102c.232-.133.43-.358.57-.646a2.22 2.22 0 0 0 .21-.97 2.286 2.286 0 0 0-.093-.663 1.868 1.868 0 0 0-.273-.563 1.32 1.32 0 0 0-.41-.377.976.976 0 0 0-.485-.132v.013zM20.09 33.293c-.813.003-1.608-.325-2.286-.94-.677-.616-1.205-1.492-1.518-2.518a7.546 7.546 0 0 1-.238-3.246c.158-1.09.549-2.093 1.123-2.88.575-.786 1.307-1.323 2.105-1.54.797-.218 1.624-.108 2.376.317.751.425 1.394 1.145 1.846 2.069.452.924.693 2.01.693 3.121 0 1.488-.431 2.914-1.2 3.967-.769 1.053-1.812 1.647-2.9 1.65zm0-10.392c-.693-.002-1.372.277-1.95.802-.577.525-1.028 1.273-1.294 2.148a6.433 6.433 0 0 0-.202 2.77c.135.93.469 1.784.96 2.454.49.67 1.115 1.127 1.796 1.311.68.184 1.386.089 2.026-.276.64-.363 1.188-.98 1.572-1.769.385-.789.589-1.716.587-2.665-.003-1.265-.372-2.477-1.026-3.372-.655-.895-1.542-1.399-2.468-1.402z"/>
        <path d="M20.09 33.293c-.646-.01-1.282-.23-1.856-.638-.574-.41-1.069-.997-1.445-1.716a.528.528 0 0 1-.064-.257c0-.093.022-.183.064-.256.41-.645.917-1.161 1.485-1.515a3.414 3.414 0 0 1 1.812-.537c.625 0 1.242.183 1.811.537.569.354 1.076.87 1.486 1.514a.53.53 0 0 1 .064.257.529.529 0 0 1-.064.257c-.377.715-.87 1.301-1.442 1.71-.572.409-1.205.63-1.85.644zm-2.675-2.526c.329.532.738.96 1.2 1.253.463.293.966.445 1.476.445s1.012-.152 1.475-.445c.462-.293.872-.72 1.2-1.253-.71-.967-1.672-1.51-2.675-1.51s-1.966.543-2.676 1.51z"/>
        <path d="M20.09 28.597c-.37.003-.731-.145-1.04-.424-.308-.278-.549-.676-.692-1.142a3.427 3.427 0 0 1-.11-1.476c.071-.495.248-.951.509-1.31.26-.358.593-.602.956-.702.362-.1.738-.05 1.08.143.342.193.634.52.84.94.206.42.315.914.315 1.42 0 .674-.195 1.32-.543 1.799-.348.478-.821.749-1.315.752zm0-4.275c-.249 0-.493.101-.7.29-.207.19-.37.459-.465.774-.095.315-.12.661-.071.995.048.335.168.642.345.883.176.24.4.405.645.471a.951.951 0 0 0 .729-.098c.23-.13.427-.351.566-.634.139-.284.212-.617.212-.958-.007-.45-.143-.878-.379-1.193-.236-.314-.552-.49-.882-.49v-.04zM31.815 33.293c-.813.003-1.609-.325-2.286-.94-.677-.616-1.206-1.492-1.518-2.518a7.546 7.546 0 0 1-.238-3.246c.157-1.09.548-2.093 1.122-2.88.575-.786 1.307-1.323 2.105-1.54.797-.218 1.624-.108 2.376.317.752.425 1.394 1.145 1.846 2.069.452.924.694 2.01.694 3.121 0 1.488-.432 2.914-1.2 3.967-.77 1.053-1.813 1.647-2.901 1.65zm0-10.392c-.694-.002-1.373.277-1.95.802-.578.525-1.028 1.273-1.295 2.148a6.433 6.433 0 0 0-.202 2.77c.135.93.47 1.784.96 2.454.49.67 1.116 1.127 1.796 1.311.68.184 1.386.089 2.027-.276.64-.363 1.187-.98 1.572-1.769.384-.789.588-1.716.586-2.665-.002-1.265-.371-2.477-1.026-3.372s-1.542-1.399-2.468-1.402z"/>
        <path d="M31.815 33.293c-.649-.007-1.287-.225-1.863-.634-.575-.41-1.072-.999-1.449-1.72a.528.528 0 0 1-.063-.257c0-.093.022-.183.063-.256.41-.645.917-1.161 1.486-1.515a3.414 3.414 0 0 1 1.811-.537c.625 0 1.243.183 1.812.537.569.354 1.075.87 1.485 1.514a.53.53 0 0 1 .064.257.529.529 0 0 1-.064.257c-.375.714-.867 1.298-1.437 1.707-.57.409-1.202.63-1.845.647zm-2.676-2.526c.328.532.737.96 1.198 1.252.462.293.964.445 1.473.445.509 0 1.012-.152 1.473-.445.461-.293.87-.72 1.198-1.252-.35-.48-.767-.86-1.225-1.12a2.92 2.92 0 0 0-1.446-.394 2.92 2.92 0 0 0-1.446.394c-.458.26-.875.64-1.225 1.12z"/>
        <path d="M31.815 28.597c-.37.003-.732-.145-1.04-.424-.308-.278-.55-.676-.692-1.142a3.427 3.427 0 0 1-.11-1.476c.07-.495.248-.951.509-1.31.26-.358.593-.602.956-.702.362-.1.738-.05 1.08.143.342.193.634.52.84.94.205.42.315.914.315 1.42 0 .674-.196 1.32-.544 1.799-.348.478-.82.749-1.314.752zm0-4.275c-.25 0-.493.101-.7.29-.208.19-.37.459-.465.774-.095.315-.12.661-.072.995.049.335.169.642.345.883.177.24.401.405.646.471a.951.951 0 0 0 .729-.098c.23-.13.427-.351.566-.634.138-.284.212-.617.212-.958-.01-.449-.147-.875-.382-1.19-.235-.313-.55-.49-.879-.494v-.039zM20.09 22.901a.244.244 0 0 1-.16-.064.397.397 0 0 1-.11-.172.53.53 0 0 1 .042-.455.332.332 0 0 1 .094-.098l5.689-3.722v-2.552a.572.572 0 0 1 .005-.182.489.489 0 0 1 .062-.163.343.343 0 0 1 .105-.11.242.242 0 0 1 .13-.04c.046 0 .09.013.131.04.041.025.077.063.106.11.029.048.05.103.061.162.012.06.014.122.006.183v2.815a.522.522 0 0 1-.047.218.352.352 0 0 1-.126.15l-5.862 3.828a.175.175 0 0 1-.126.052z"/>
        <path d="M31.815 22.901a.178.178 0 0 1-.135 0l-5.862-3.827a.351.351 0 0 1-.126-.15.522.522 0 0 1-.047-.219v-2.867a.574.574 0 0 1 .005-.182.49.49 0 0 1 .062-.163.343.343 0 0 1 .106-.11.242.242 0 0 1 .13-.04c.045 0 .09.013.13.04.041.025.077.063.106.11a.49.49 0 0 1 .062.162c.011.06.013.122.005.183v2.552l5.69 3.722a.404.404 0 0 1 .153.236.565.565 0 0 1-.01.317.416.416 0 0 1-.11.168.262.262 0 0 1-.16.068z"/>
        <path d="M45.031 37.331H6.864a.332.332 0 0 1-.262-.145.615.615 0 0 1-.113-.355V2.514c0-.069.01-.137.03-.2a.53.53 0 0 1 .086-.168.332.332 0 0 1 .26-.145H45.03c.05-.002.1.01.145.035a.38.38 0 0 1 .124.111.54.54 0 0 1 .08.169c.02.063.028.13.027.198v34.318c0 .067-.01.133-.029.195a.536.536 0 0 1-.082.164.376.376 0 0 1-.122.107.28.28 0 0 1-.143.034zM7.24 36.318h37.464V3.026H7.24V36.32z"/>
        <path d="M45.86 45H6.045c-.723 0-1.417-.392-1.93-1.09-.512-.697-.8-1.644-.803-2.632v-3.539c0-.377.109-.738.304-1.004.195-.267.46-.416.735-.416h43.24c.262.026.507.187.686.451.178.264.277.61.276.97v3.538c0 .98-.282 1.92-.787 2.618-.505.697-1.19 1.094-1.908 1.104zM4.351 37.331a.277.277 0 0 0-.208.123.506.506 0 0 0-.09.285v3.539c.002.72.213 1.409.587 1.916.373.508.878.793 1.405.793H45.86c.26 0 .518-.07.759-.206.24-.136.46-.336.643-.587.184-.252.33-.55.43-.88.1-.328.151-.68.151-1.036v-3.539a.493.493 0 0 0-.087-.288.265.265 0 0 0-.211-.12H4.352z"/>
        <path d="M25.953 42.514a1.114 1.114 0 0 1-.758-.307 1.841 1.841 0 0 1-.504-.832 2.492 2.492 0 0 1-.08-1.074c.053-.361.182-.693.372-.953s.434-.437.698-.508c.264-.072.538-.034.786.108.248.142.46.382.609.689.148.307.226.667.224 1.035 0 .489-.142.957-.394 1.303-.253.345-.596.539-.953.539zm0-2.63a.503.503 0 0 0-.345.135.83.83 0 0 0-.231.375 1.13 1.13 0 0 0-.04.487c.023.164.081.315.167.434.086.12.196.201.315.235.12.033.245.017.358-.046a.703.703 0 0 0 .278-.31c.068-.139.104-.302.104-.469a1.13 1.13 0 0 0-.034-.335.938.938 0 0 0-.129-.29.664.664 0 0 0-.201-.197.482.482 0 0 0-.242-.072v.052z"/>
    </g>
    <defs>
        <clipPath id="30luwz9nta">
            <path fill="#fff" transform="translate(3.313 2)" d="M0 0h45.271v43H0z"/>
        </clipPath>
    </defs>
</svg>
