<svg width="53" height="48" viewBox="0 0 53 48" fill="none" xmlns="http://www.w3.org/2000/svg">
    <g clip-path="url(#khnk7utjva)" fill="#56828F" stroke="#56828F" stroke-width=".5" stroke-miterlimit="10">
        <path d="M12.756 44.67h-5.72a.34.34 0 0 1-.28-.098.404.404 0 0 1-.118-.286V33.437a.406.406 0 0 1 .101-.28.341.341 0 0 1 .259-.117h5.758a.36.36 0 0 1 .264.117.41.41 0 0 1 .109.28v10.85a.408.408 0 0 1-.114.271.36.36 0 0 1-.259.112zm-5.386-.78h5.026V33.82H7.37v10.07zM23.466 44.67h-5.758a.35.35 0 0 1-.255-.113.396.396 0 0 1-.105-.27V18.015c0-.102.038-.2.105-.271a.349.349 0 0 1 .255-.112h5.758a.343.343 0 0 1 .262.107.386.386 0 0 1 .11.276v26.27a.407.407 0 0 1-.11.276.357.357 0 0 1-.262.108zm-5.386-.78h4.964V18.412H18.08V43.89zM34.175 44.67h-5.758a.35.35 0 0 1-.254-.113.396.396 0 0 1-.105-.27V21.16c0-.102.037-.2.105-.271a.35.35 0 0 1 .254-.112h5.758a.34.34 0 0 1 .263.107.386.386 0 0 1 .11.276v23.125a.407.407 0 0 1-.11.276.356.356 0 0 1-.263.108zm-5.385-.78h4.964V21.557H28.79V43.89zM44.885 44.67H39.14a.34.34 0 0 1-.263-.108.386.386 0 0 1-.11-.276V13.893a.406.406 0 0 1 .11-.276.358.358 0 0 1 .262-.107h5.746a.34.34 0 0 1 .263.107.385.385 0 0 1 .11.276v30.393a.405.405 0 0 1-.11.276.358.358 0 0 1-.263.108zm-5.386-.78h5.026V14.276H39.5V43.89zM33.294 13.893a.366.366 0 0 1-.167-.05.393.393 0 0 1-.13-.122.418.418 0 0 1-.048-.285.4.4 0 0 1 .147-.243l10.412-7.81a.354.354 0 0 1 .272-.066.352.352 0 0 1 .133.054.377.377 0 0 1 .162.243.411.411 0 0 1-.047.293.38.38 0 0 1-.098.11l-10.425 7.876a.316.316 0 0 1-.21 0zM30.254 14.17a.36.36 0 0 1-.161 0L21.33 9.678a.389.389 0 0 1-.19-.226.42.42 0 0 1 .017-.303.38.38 0 0 1 .21-.188.351.351 0 0 1 .274.016l8.773 4.493c.082.033.15.096.19.178a.405.405 0 0 1 .034.267c-.02.09-.07.17-.14.225a.344.344 0 0 1-.245.07v-.04zM8.115 18.809a.365.365 0 0 1-.157-.04.388.388 0 0 1-.128-.105.41.41 0 0 1-.107-.278.41.41 0 0 1 .107-.277l10.386-8.775a.355.355 0 0 1 .268-.08.369.369 0 0 1 .242.145.396.396 0 0 1 .074.286.404.404 0 0 1-.137.257L8.351 18.716a.335.335 0 0 1-.236.093z"/>
        <path d="M6.738 21.822a2.054 2.054 0 0 1-1.197-.38 2.26 2.26 0 0 1-.796-1.022 2.424 2.424 0 0 1-.127-1.322c.081-.444.285-.853.585-1.174.3-.321.682-.54 1.099-.63.417-.089.849-.044 1.242.128.393.173.729.466.965.842a2.393 2.393 0 0 1-.265 2.88c-.4.427-.94.67-1.506.678zm0-3.78a1.353 1.353 0 0 0-.791.249c-.235.164-.418.4-.526.675-.11.276-.138.58-.084.873.054.294.19.564.388.775.198.212.452.355.727.413.276.058.561.027.82-.089.26-.116.48-.31.635-.56.154-.25.235-.543.233-.842a1.552 1.552 0 0 0-.431-1.019 1.371 1.371 0 0 0-.971-.422v-.053zM19.892 10.735c-.422 0-.835-.133-1.186-.383a2.248 2.248 0 0 1-.786-1.02 2.41 2.41 0 0 1-.122-1.314c.083-.44.286-.845.585-1.163a2.098 2.098 0 0 1 1.093-.622 2.014 2.014 0 0 1 1.233.129c.39.172.723.463.958.837a2.4 2.4 0 0 1 .197 2.133 2.287 2.287 0 0 1-.463.737 2.133 2.133 0 0 1-.692.493 2.023 2.023 0 0 1-.817.173zm0-3.766c-.184 0-.367.038-.537.113-.17.075-.324.185-.455.324-.13.139-.233.303-.304.484a1.577 1.577 0 0 0 0 1.143c.07.181.174.346.304.485.13.138.285.248.455.323.17.076.353.114.537.114.372 0 .729-.157.992-.437.262-.28.41-.66.41-1.056s-.148-.776-.41-1.056a1.36 1.36 0 0 0-.992-.437zM31.855 16.88a2.054 2.054 0 0 1-1.196-.38 2.26 2.26 0 0 1-.796-1.023 2.424 2.424 0 0 1-.128-1.321c.082-.445.285-.853.585-1.174.3-.321.682-.54 1.1-.63.416-.089.848-.045 1.241.128.393.173.73.466.966.842.236.376.362.819.362 1.271 0 .604-.224 1.184-.624 1.612-.4.429-.943.671-1.51.675zm0-3.78a1.353 1.353 0 0 0-.79.248c-.235.165-.418.4-.527.676-.109.276-.138.58-.084.873.055.294.19.563.388.775.199.211.452.355.728.413.275.057.56.026.82-.09.259-.115.48-.31.634-.56.154-.25.236-.543.233-.842 0-.396-.148-.775-.41-1.056a1.36 1.36 0 0 0-.992-.437zM45.158 6.89a2.054 2.054 0 0 1-1.2-.382 2.261 2.261 0 0 1-.795-1.03 2.424 2.424 0 0 1-.121-1.327c.084-.446.291-.854.595-1.174.303-.32.69-.535 1.109-.62.419-.084.852-.034 1.245.144.392.18.725.478.957.86.232.381.352.828.345 1.282a2.347 2.347 0 0 1-.634 1.59c-.4.42-.939.656-1.5.656zm0-3.78a1.353 1.353 0 0 0-.786.246 1.487 1.487 0 0 0-.527.669c-.11.273-.14.575-.09.868.051.292.183.562.378.775.194.213.444.36.717.422.273.062.558.036.817-.073.26-.11.483-.299.642-.543a1.592 1.592 0 0 0 .152-1.413 1.519 1.519 0 0 0-.302-.496 1.416 1.416 0 0 0-.457-.334 1.341 1.341 0 0 0-.544-.121zM47.9 44.67H3.984a.368.368 0 0 1-.219-.137.413.413 0 0 1 0-.507.368.368 0 0 1 .219-.136H47.9a.35.35 0 0 1 .306.085.418.418 0 0 1 0 .61.35.35 0 0 1-.306.085z"/>
    </g>
    <defs>
        <clipPath id="khnk7utjva">
            <path fill="#fff" transform="translate(3.313 2)" d="M0 0h45.271v43H0z"/>
        </clipPath>
    </defs>
</svg>
