<svg width="53" height="48" viewBox="0 0 53 48" fill="none" xmlns="http://www.w3.org/2000/svg">
    <g clip-path="url(#icygki6txa)" fill="#56828F">
        <path d="M25.805 18.303a.426.426 0 0 1-.166 0L3.72 11.284a.585.585 0 0 1-.309-.882.574.574 0 0 1 .276-.217L25.607 2a.645.645 0 0 1 .407 0l21.92 8.185a.573.573 0 0 1 .415.555.58.58 0 0 1-.416.555l-21.92 6.996a.448.448 0 0 1-.208.012zM5.67 10.684l20.134 6.43 20.144-6.43L25.805 3.2 5.67 10.684z"/>
        <path d="M21.837 7.886a.57.57 0 0 1-.543-.475.58.58 0 0 1 .345-.636l8.342-3.11a.559.559 0 0 1 .739.345.581.581 0 0 1-.342.744l-8.331 3.098a.624.624 0 0 1-.21.034zM25.805 27.864a36.27 36.27 0 0 1-13.82-2.843 2.086 2.086 0 0 1-.919-.769 2.11 2.11 0 0 1-.348-1.152v-9.995a.569.569 0 0 1 .48-.572.58.58 0 0 1 .27.017l14.326 4.575L40.12 12.55a.58.58 0 0 1 .75.555V23.1c.004.402-.106.796-.317 1.136-.21.341-.514.613-.874.785a36.126 36.126 0 0 1-13.874 2.843zm-13.93-13.981V23.1a.948.948 0 0 0 .573.877 35.12 35.12 0 0 0 13.357 2.744c4.59-.034 9.13-.965 13.367-2.744a.938.938 0 0 0 .573-.877v-9.217l-13.764 4.442a.602.602 0 0 1-.342 0l-13.764-4.442z"/>
        <path d="M21.672 23.755a36.07 36.07 0 0 1-9.687-2.576 2.098 2.098 0 0 1-.923-.78 2.122 2.122 0 0 1-.344-1.164c0-.153.06-.3.168-.408a.57.57 0 0 1 .405-.169c.155 0 .303.062.413.172.11.11.171.26.171.417a.96.96 0 0 0 .573.877 35.338 35.338 0 0 0 9.301 2.488.573.573 0 0 1 .381.584.58.58 0 0 1-.458.526v.033zM44.175 26.92a.582.582 0 0 1-.413-.172.591.591 0 0 1-.17-.416V11.895a.581.581 0 0 1 .36-.537.568.568 0 0 1 .223-.04.57.57 0 0 1 .405.168.58.58 0 0 1 .168.409v14.437a.583.583 0 0 1-.351.543.57.57 0 0 1-.222.045z"/>
        <path d="M44.175 33.75a3.945 3.945 0 0 1-2.208-.669 3.991 3.991 0 0 1-1.466-1.794 4.027 4.027 0 0 1 .858-4.362 3.94 3.94 0 0 1 4.329-.865 3.975 3.975 0 0 1 1.78 1.478 4.02 4.02 0 0 1-.498 5.041 3.952 3.952 0 0 1-2.795 1.171zm0-6.83c-.555 0-1.098.166-1.56.477-.462.31-.822.752-1.035 1.27a2.852 2.852 0 0 0 .604 3.084 2.79 2.79 0 0 0 3.059.621 2.815 2.815 0 0 0 1.264-1.038 2.847 2.847 0 0 0-.34-3.58 2.81 2.81 0 0 0-1.992-.834z"/>
        <path d="M44.175 33.75a3.945 3.945 0 0 1-2.208-.669 3.991 3.991 0 0 1-1.466-1.794 4.027 4.027 0 0 1 .858-4.362 3.94 3.94 0 0 1 4.329-.865 3.975 3.975 0 0 1 1.78 1.478 4.02 4.02 0 0 1-.498 5.041 3.952 3.952 0 0 1-2.795 1.171zm0-6.83c-.555 0-1.098.166-1.56.477-.462.31-.822.752-1.035 1.27a2.852 2.852 0 0 0 .604 3.084 2.79 2.79 0 0 0 3.059.621 2.815 2.815 0 0 0 1.264-1.038 2.847 2.847 0 0 0-.34-3.58 2.81 2.81 0 0 0-1.992-.834z"/>
        <path d="M46.49 45h-4.607a2.081 2.081 0 0 1-1.576-.722 2.092 2.092 0 0 1-.518-1.666l1.29-10.628a.625.625 0 0 1 .33-.455.57.57 0 0 1 .683.133 2.79 2.79 0 0 0 3.248.698c.365-.167.69-.413.951-.72a.56.56 0 0 1 .683-.133.574.574 0 0 1 .33.455l1.312 10.65a2.136 2.136 0 0 1-.507 1.666 2.138 2.138 0 0 1-1.62.722zM42.08 33.15l-1.168 9.607a.986.986 0 0 0 .232.755.98.98 0 0 0 .716.322h4.628a.952.952 0 0 0 .706-.322.945.945 0 0 0 .198-.755l-1.102-9.606a4.01 4.01 0 0 1-4.188 0h-.022z"/>
    </g>
    <defs>
        <clipPath id="icygki6txa">
            <path fill="#fff" transform="translate(3.313 2)" d="M0 0h45.271v43H0z"/>
        </clipPath>
    </defs>
</svg>
