<svg width="142" height="146" viewBox="0 0 142 146" fill="none" xmlns="http://www.w3.org/2000/svg">
<path d="M129.831 81.6338L134.65 76.8149C136.758 74.7067 136.758 71.2933 134.65 69.185L129.831 64.3661C128.291 62.8267 127.823 60.4842 128.659 58.4764L131.27 52.185C132.407 49.4409 131.102 46.2618 128.358 45.124L122.067 42.5137C120.059 41.6771 118.72 39.7027 118.72 37.5275V30.7008C118.72 27.7224 116.311 25.2795 113.299 25.2795H106.472C104.297 25.2795 102.323 23.9744 101.486 21.933L98.876 15.6417C97.7382 12.8976 94.5591 11.559 91.815 12.7303L85.5236 15.3405C83.5157 16.1771 81.1732 15.7086 79.6339 14.1693L74.815 9.35037C72.7067 7.2421 69.2933 7.2421 67.185 9.35037L62.3661 14.1693C60.8268 15.7086 58.4843 16.1771 56.4764 15.3405L50.185 12.7303C47.4409 11.5925 44.2618 12.8976 43.124 15.6417L40.5138 21.933C39.6772 23.9409 37.7028 25.2795 35.5276 25.2795H28.7008C25.7224 25.2795 23.2795 27.6889 23.2795 30.7008V37.5275C23.2795 39.7027 21.9744 41.6771 19.9331 42.5137L13.6417 45.124C10.8976 46.2618 9.55906 49.4409 10.7303 52.185L13.3406 58.4764C14.1772 60.4842 13.7087 62.8267 12.1693 64.3661L7.3504 69.185C5.24213 71.2933 5.24213 74.7067 7.3504 76.8149L12.1693 81.6338C13.7087 83.1732 14.1772 85.5157 13.3406 87.5236L10.7303 93.8149C9.59252 96.559 10.8976 99.7381 13.6417 100.876L19.9331 103.486C21.9409 104.323 23.2795 106.297 23.2795 108.472V115.299C23.2795 118.278 25.689 120.72 28.7008 120.72H35.5276C37.7028 120.72 39.6772 122.026 40.5138 124.067L43.124 130.358C44.2618 133.102 47.4409 134.441 50.185 133.27L56.4764 130.659C58.4843 129.823 60.8268 130.291 62.3661 131.831L67.185 136.65C69.2933 138.758 72.7067 138.758 74.815 136.65L79.6339 131.831C81.1732 130.291 83.5157 129.823 85.5236 130.659L91.815 133.27C94.5591 134.407 97.7382 133.102 98.876 130.358L101.486 124.067C102.323 122.059 104.297 120.72 106.472 120.72H113.299C116.278 120.72 118.72 118.311 118.72 115.299V108.472C118.72 106.297 120.026 104.323 122.067 103.486L128.358 100.876C131.102 99.7381 132.441 96.559 131.27 93.8149L128.659 87.5236C127.823 85.5157 128.291 83.1732 129.831 81.6338Z" fill="white"/>
<path d="M71 120.419C97.189 120.419 118.419 99.1889 118.419 73C118.419 46.811 97.189 25.5807 71 25.5807C44.8111 25.5807 23.5807 46.811 23.5807 73C23.5807 99.1889 44.8111 120.419 71 120.419Z" fill="#FAA723"/>
<path d="M71 115.333C94.3797 115.333 113.333 96.3797 113.333 73C113.333 49.6203 94.3797 30.6674 71 30.6674C47.6203 30.6674 28.6673 49.6203 28.6673 73C28.6673 96.3797 47.6203 115.333 71 115.333Z" fill="white"/>
<path d="M57.2126 93.3465C56.376 93.3465 55.5729 93.0118 54.9705 92.4095L42.3209 79.2914C41.1162 78.0532 41.1831 76.0788 42.3878 74.9075C43.626 73.7028 45.6004 73.7697 46.7717 74.9744L56.9114 85.5158C63.5039 77.0158 82.0768 54.5611 94.8602 52.7205C96.5669 52.4862 98.1398 53.6575 98.374 55.3307C98.6083 57.0374 97.437 58.6103 95.7638 58.8445C85.2559 60.3839 66.1477 83.374 59.6555 92.1083C59.1201 92.8445 58.2835 93.313 57.3465 93.3465C57.3465 93.3465 57.2795 93.3465 57.2126 93.3465Z" fill="#FAA723"/>
</svg>
