<svg width="53" height="48" viewBox="0 0 53 48" fill="none" xmlns="http://www.w3.org/2000/svg">
    <g clip-path="url(#q14rj3tp4a)" fill="#56828F">
        <path d="M15.552 39.634a.808.808 0 0 1-.555-.22l-5.804-5.512a.729.729 0 0 1-.23-.528.73.73 0 0 1 .23-.528L35.201 8.143a.842.842 0 0 1 .556-.207c.206 0 .404.074.556.207l5.803 5.586c.147.14.23.33.23.527a.73.73 0 0 1-.23.528l-26.008 24.63a.872.872 0 0 1-.556.22zm-4.63-6.26 4.63 4.398L40.45 14.183l-4.63-4.398-24.897 23.589z"/>
        <path d="M42.07 15.415a.809.809 0 0 1-.556-.22l-6.822-6.48a.756.756 0 0 1-.218-.528c0-.196.078-.384.218-.528l2.454-2.331a.842.842 0 0 1 .556-.207c.206 0 .404.074.555.207l6.823 6.48a.73.73 0 0 1 .231.528.786.786 0 0 1-.231.528l-2.455 2.33a.809.809 0 0 1-.555.22zm-5.711-7.228 5.71 5.424 1.374-1.275-5.71-5.425-1.374 1.276z"/>
        <path d="M44.015 12.6a.775.775 0 0 1-.572-.22l-5.788-5.513a.733.733 0 0 1-.231-.469.786.786 0 0 1 .231-.528l2.27-2.14c.26-.271.578-.489.93-.64a2.982 2.982 0 0 1 1.122-.24c.385 0 .766.072 1.121.213.355.141.677.348.947.608l2.794 2.64a2.73 2.73 0 0 1 .85 1.964c0 .362-.075.72-.221 1.055-.146.335-.36.639-.629.895L44.57 12.38a.809.809 0 0 1-.555.22zm-4.693-6.202 4.63 4.398 1.714-1.627a1.26 1.26 0 0 0 .287-.41c.066-.154.1-.318.099-.484a1.285 1.285 0 0 0-.386-.91l-2.732-2.653a1.446 1.446 0 0 0-.95-.35c-.35 0-.69.125-.948.35l-1.714 1.686zM7.017 42.23a.82.82 0 0 1-.356-.08.78.78 0 0 1-.28-.223.712.712 0 0 1-.12-.666l2.747-8.107a.728.728 0 0 1 .208-.32.785.785 0 0 1 .348-.178.844.844 0 0 1 .396.005c.13.034.248.097.345.185l5.803 5.513a.712.712 0 0 1 .198.701.737.737 0 0 1-.189.33.794.794 0 0 1-.333.2L7.248 42.2l-.231.03zm3.087-7.463-1.868 5.57 5.881-1.788-4.013-3.782z"/>
        <path d="M12.65 36.878a.816.816 0 0 1-.436-.127.757.757 0 0 1-.289-.335.713.713 0 0 1-.045-.431.736.736 0 0 1 .215-.383L38.103 10.9a.812.812 0 0 1 .546-.188c.2.005.392.083.534.218a.73.73 0 0 1 .23.507.726.726 0 0 1-.199.519L13.206 36.658a.808.808 0 0 1-.555.22zM8.236 29.181a.8.8 0 0 1-.472-.142.735.735 0 0 1-.284-.386 17.153 17.153 0 0 1-.787-5.146c.008-4.85 2.04-9.5 5.65-12.929 3.612-3.43 8.506-5.36 13.613-5.367a20.68 20.68 0 0 1 5.448.747.797.797 0 0 1 .48.365.73.73 0 0 1 .068.581.772.772 0 0 1-.384.456.841.841 0 0 1-.611.064 18.574 18.574 0 0 0-8.134-.427 18.158 18.158 0 0 0-7.471 3.083 17.025 17.025 0 0 0-5.222 5.939 16.1 16.1 0 0 0-1.153 12.253.698.698 0 0 1-.057.567.743.743 0 0 1-.196.223.788.788 0 0 1-.272.134.585.585 0 0 1-.216-.015zM25.956 41.79a20.693 20.693 0 0 1-5.464-.748.78.78 0 0 1-.462-.36.714.714 0 0 1-.063-.564.756.756 0 0 1 .374-.448.825.825 0 0 1 .598-.065c3.05.858 6.287.918 9.37.174 3.082-.744 5.896-2.264 8.145-4.4 2.25-2.136 3.85-4.81 4.633-7.737.783-2.928.72-6.003-.184-8.9a.729.729 0 0 1 .068-.58.796.796 0 0 1 .48-.365.841.841 0 0 1 .611.064.772.772 0 0 1 .385.456 17.412 17.412 0 0 1 .475 8.415 17.847 17.847 0 0 1-3.546 7.724 19.065 19.065 0 0 1-6.814 5.396 20.102 20.102 0 0 1-8.637 1.923l.03.014z"/>
        <path d="M29.552 45h-7.177a2.505 2.505 0 0 1-1.725-.678 2.259 2.259 0 0 1-.714-1.638v-2.36a.71.71 0 0 1 .163-.622.784.784 0 0 1 .272-.202.821.821 0 0 1 .946.202.71.71 0 0 1 .163.621v2.36a.8.8 0 0 0 .253.581c.162.154.382.24.61.24h7.21c.228 0 .448-.086.61-.24a.8.8 0 0 0 .253-.58v-2.36a.71.71 0 0 1 .156-.453.775.775 0 0 1 .416-.266 18.279 18.279 0 0 0 3.441-1.349.807.807 0 0 1 .927.117l1.728 1.745c.165.154.387.24.618.24a.905.905 0 0 0 .617-.24l5.125-4.867a.82.82 0 0 0 .191-.269.785.785 0 0 0-.191-.904l-1.76-1.672a.702.702 0 0 1-.123-.88 16.39 16.39 0 0 0 1.42-3.269.733.733 0 0 1 .28-.394.799.799 0 0 1 .476-.148h2.485c.23 0 .449-.087.611-.24a.8.8 0 0 0 .253-.581v-6.788a.8.8 0 0 0-.253-.58.888.888 0 0 0-.611-.241H43.66a.795.795 0 0 1-.454-.26.725.725 0 0 1-.178-.473c0-.173.063-.34.178-.474a.796.796 0 0 1 .454-.26h2.485c.646 0 1.267.245 1.724.68.458.434.714 1.023.714 1.637v6.788c0 .615-.256 1.204-.714 1.638a2.505 2.505 0 0 1-1.724.679H44.23c-.292.872-.658 1.72-1.096 2.536l1.343 1.29c.23.211.412.464.537.744.125.28.189.58.188.883 0 .306-.065.608-.19.89a2.314 2.314 0 0 1-.535.753L39.43 41.1a2.556 2.556 0 0 1-1.721.658 2.556 2.556 0 0 1-1.721-.658l-1.359-1.275c-.858.415-1.752.764-2.67 1.04v1.819c0 .609-.253 1.194-.703 1.627a2.503 2.503 0 0 1-1.705.689zM8.236 29.21H5.751c-.641 0-1.257-.24-1.713-.668a2.261 2.261 0 0 1-.726-1.619v-6.817c0-.614.257-1.203.715-1.638a2.506 2.506 0 0 1 1.724-.678h1.914c.289-.893.655-1.76 1.096-2.595l-1.343-1.276a2.3 2.3 0 0 1-.536-.751 2.202 2.202 0 0 1 0-1.78 2.3 2.3 0 0 1 .536-.753L12.466 5.9a2.572 2.572 0 0 1 1.728-.66c.644 0 1.263.237 1.729.66l1.281 1.275a18.165 18.165 0 0 1 2.67-1.04V4.317c0-.31.065-.616.192-.9.126-.286.311-.544.544-.76.233-.215.51-.385.813-.498.303-.112.626-.167.952-.159h7.177c.647 0 1.267.244 1.724.679.458.434.715 1.023.715 1.638v2.36a.742.742 0 0 1-.273.431.813.813 0 0 1-.499.17.813.813 0 0 1-.499-.17.742.742 0 0 1-.273-.431v-2.36a.786.786 0 0 0-.252-.61.905.905 0 0 0-.643-.24h-7.177c-.23 0-.45.086-.611.24a.8.8 0 0 0-.254.58v2.39a.71.71 0 0 1-.155.452.775.775 0 0 1-.416.266 18.283 18.283 0 0 0-3.442 1.35.806.806 0 0 1-.926-.118l-1.76-1.671a.904.904 0 0 0-.617-.24.904.904 0 0 0-.617.24L8.53 11.75a.821.821 0 0 0-.192.268.785.785 0 0 0 .192.904l1.76 1.672a.702.702 0 0 1 .123.88 16.397 16.397 0 0 0-1.42 3.269.733.733 0 0 1-.28.394.8.8 0 0 1-.477.148H5.751c-.229 0-.449.087-.611.24a.8.8 0 0 0-.253.581v6.817a.8.8 0 0 0 .253.581c.162.154.382.24.611.24h2.485a.828.828 0 0 1 .654.155c.09.07.163.159.213.258a.717.717 0 0 1-.213.899.828.828 0 0 1-.654.155z"/>
        <path d="M11.586 28.521a.8.8 0 0 1-.469-.136.737.737 0 0 1-.288-.377 14.334 14.334 0 0 1-.51-6.974 14.67 14.67 0 0 1 2.862-6.44 15.672 15.672 0 0 1 5.616-4.52 16.537 16.537 0 0 1 7.159-1.623 16.179 16.179 0 0 1 4.954.762c.098.03.189.078.267.142a.74.74 0 0 1 .188.228.705.705 0 0 1 .04.568.762.762 0 0 1-.394.427.825.825 0 0 1-.595.043 14.805 14.805 0 0 0-4.46-.675c-2.238 0-4.445.5-6.442 1.46a14.116 14.116 0 0 0-5.055 4.064 13.214 13.214 0 0 0-2.581 5.793 12.909 12.909 0 0 0 .448 6.276.714.714 0 0 1-.05.57.777.777 0 0 1-.459.368.63.63 0 0 1-.231.044zM25.956 38.55c-1.71-.001-3.41-.264-5.032-.778a.825.825 0 0 1-.276-.148.779.779 0 0 1-.195-.238.743.743 0 0 1 .11-.85.807.807 0 0 1 .25-.186.846.846 0 0 1 .62-.044c1.46.457 2.986.69 4.523.69 3.782 0 7.41-1.428 10.084-3.968 2.675-2.541 4.178-5.987 4.178-9.58a13.279 13.279 0 0 0-.587-3.855.729.729 0 0 1 .068-.58.775.775 0 0 1 .202-.229.82.82 0 0 1 .59-.162.834.834 0 0 1 .539.281.75.75 0 0 1 .144.265 14.404 14.404 0 0 1-.546 10.094 15.034 15.034 0 0 1-3.444 4.888 15.937 15.937 0 0 1-5.153 3.262 16.583 16.583 0 0 1-6.075 1.137z"/>
    </g>
    <defs>
        <clipPath id="q14rj3tp4a">
            <path fill="#fff" transform="translate(3.313 2)" d="M0 0h45.271v43H0z"/>
        </clipPath>
    </defs>
</svg>
