<svg width="53" height="48" viewBox="0 0 53 48" fill="none" xmlns="http://www.w3.org/2000/svg">
    <g clip-path="url(#4v9g1t0mda)">
        <path d="M7.613 14.33c.272 0 .533.118.725.329.192.21.3.496.3.794v.93h1.471v1.221H8.64v1.87h1.47v1.222H8.64v.855c0 .298-.109.584-.3.795a.981.981 0 0 1-.726.33h-2.35a.947.947 0 0 1-.393-.086 1.024 1.024 0 0 1-.332-.244 1.137 1.137 0 0 1-.223-.365 1.22 1.22 0 0 1-.078-.43v-6.11c0-.298.108-.584.3-.795a.982.982 0 0 1 .725-.329h2.351m0-.72h-2.35c-.445.002-.87.198-1.183.544a1.94 1.94 0 0 0-.489 1.3v6.11c0 .486.176.952.49 1.296a1.6 1.6 0 0 0 1.181.537h2.351a1.6 1.6 0 0 0 1.182-.537c.314-.344.49-.81.49-1.296v-.22h1.47v-2.566h-1.47v-.489h1.47v-2.615h-1.47v-.22a1.938 1.938 0 0 0-.493-1.292 1.612 1.612 0 0 0-1.179-.54v-.013z" fill="#56828F"/>
        <path d="M7.613 14.33c.272 0 .533.118.725.329.192.21.3.496.3.794v.93h1.471v1.221H8.64v1.87h1.47v1.222H8.64v.855c0 .298-.109.584-.3.795a.981.981 0 0 1-.726.33h-2.35a.947.947 0 0 1-.393-.086 1.024 1.024 0 0 1-.332-.244 1.137 1.137 0 0 1-.223-.365 1.22 1.22 0 0 1-.078-.43v-6.11c0-.298.108-.584.3-.795a.982.982 0 0 1 .725-.329h2.351m0-.72h-2.35c-.445.002-.87.198-1.183.544a1.94 1.94 0 0 0-.489 1.3v6.11c0 .486.176.952.49 1.296a1.6 1.6 0 0 0 1.181.537h2.351a1.6 1.6 0 0 0 1.182-.537c.314-.344.49-.81.49-1.296v-.22h1.47v-2.566h-1.47v-.489h1.47v-2.615h-1.47v-.22a1.938 1.938 0 0 0-.493-1.292 1.612 1.612 0 0 0-1.179-.54v-.013z" stroke="#56828F" stroke-width=".5" stroke-miterlimit="10"/>
        <path d="M46.633 14.33c.272 0 .533.118.725.329.193.21.3.496.3.794v6.11c0 .298-.108.584-.3.795a.981.981 0 0 1-.725.33h-2.35a.981.981 0 0 1-.725-.33c-.193-.21-.3-.497-.3-.795v-.928h-1.471v-1.222h1.47v-1.846h-1.47v-1.221h1.47v-.905c0-.298.108-.584.3-.795a.982.982 0 0 1 .725-.329h2.351m0-.72h-2.35c-.445.002-.87.198-1.183.544a1.94 1.94 0 0 0-.489 1.3v.208h-1.415v2.615h1.47v.489h-1.47v2.615h1.47v.183c0 .486.177.952.49 1.296a1.6 1.6 0 0 0 1.182.537h2.351a1.6 1.6 0 0 0 1.182-.537c.313-.344.49-.81.49-1.296v-6.11a1.94 1.94 0 0 0-.49-1.3 1.612 1.612 0 0 0-1.182-.545h-.056z" fill="#56828F"/>
        <path d="M46.633 14.33c.272 0 .533.118.725.329.193.21.3.496.3.794v6.11c0 .298-.108.584-.3.795a.981.981 0 0 1-.725.33h-2.35a.981.981 0 0 1-.725-.33c-.193-.21-.3-.497-.3-.795v-.928h-1.471v-1.222h1.47v-1.846h-1.47v-1.221h1.47v-.905c0-.298.108-.584.3-.795a.982.982 0 0 1 .725-.329h2.351m0-.72h-2.35c-.445.002-.87.198-1.183.544a1.94 1.94 0 0 0-.489 1.3v.208h-1.415v2.615h1.47v.489h-1.47v2.615h1.47v.183c0 .486.177.952.49 1.296a1.6 1.6 0 0 0 1.182.537h2.351a1.6 1.6 0 0 0 1.182-.537c.313-.344.49-.81.49-1.296v-6.11a1.94 1.94 0 0 0-.49-1.3 1.612 1.612 0 0 0-1.182-.545h-.056z" stroke="#56828F" stroke-width=".5" stroke-miterlimit="10"/>
        <path d="M18.912 40.43v2.444c0 .143-.026.284-.076.416a1.1 1.1 0 0 1-.215.353.99.99 0 0 1-.322.236.916.916 0 0 1-.379.082h-3.889a.916.916 0 0 1-.38-.082.99.99 0 0 1-.32-.236 1.1 1.1 0 0 1-.216-.353 1.178 1.178 0 0 1-.075-.416V40.43h5.872m.646-.721h-7.165v3.19c0 .476.173.932.48 1.27.307.336.724.526 1.158.526h3.878c.434 0 .85-.19 1.158-.527.307-.337.48-.793.48-1.27V39.71h.01z" fill="#56828F"/>
        <path d="M18.912 40.43v2.444c0 .143-.026.284-.076.416a1.1 1.1 0 0 1-.215.353.99.99 0 0 1-.322.236.916.916 0 0 1-.379.082h-3.889a.916.916 0 0 1-.38-.082.99.99 0 0 1-.32-.236 1.1 1.1 0 0 1-.216-.353 1.178 1.178 0 0 1-.075-.416V40.43h5.872m.646-.721h-7.165v3.19c0 .476.173.932.48 1.27.307.336.724.526 1.158.526h3.878c.434 0 .85-.19 1.158-.527.307-.337.48-.793.48-1.27V39.71h.01z" stroke="#56828F" stroke-width=".5" stroke-miterlimit="10"/>
        <path d="M38.734 40.43v2.444c0 .143-.026.284-.076.416s-.123.252-.215.353a.99.99 0 0 1-.322.236.916.916 0 0 1-.38.082h-3.865a.915.915 0 0 1-.38-.082.989.989 0 0 1-.322-.236 1.1 1.1 0 0 1-.215-.353 1.18 1.18 0 0 1-.075-.416V40.43h5.85m.646-.721h-7.098v3.19a1.9 1.9 0 0 0 .487 1.27c.31.337.727.526 1.162.526h3.81c.435 0 .852-.19 1.16-.527.306-.337.479-.793.479-1.27V39.71z" fill="#56828F"/>
        <path d="M38.734 40.43v2.444c0 .143-.026.284-.076.416s-.123.252-.215.353a.99.99 0 0 1-.322.236.916.916 0 0 1-.38.082h-3.865a.915.915 0 0 1-.38-.082.989.989 0 0 1-.322-.236 1.1 1.1 0 0 1-.215-.353 1.18 1.18 0 0 1-.075-.416V40.43h5.85m.646-.721h-7.098v3.19a1.9 1.9 0 0 0 .487 1.27c.31.337.727.526 1.162.526h3.81c.435 0 .852-.19 1.16-.527.306-.337.479-.793.479-1.27V39.71z" stroke="#56828F" stroke-width=".5" stroke-miterlimit="10"/>
        <path d="M25.887 3.014A49.284 49.284 0 0 1 40.004 5.08c.366.1.69.334.919.662.229.329.349.733.34 1.147v32.125c.001.185-.03.37-.094.541a1.424 1.424 0 0 1-.277.46c-.12.132-.261.236-.418.308a1.184 1.184 0 0 1-.492.108h-28.19c-.17 0-.337-.037-.493-.108a1.284 1.284 0 0 1-.417-.308 1.425 1.425 0 0 1-.277-.46 1.525 1.525 0 0 1-.095-.541V6.79c.012-.386.135-.758.351-1.063.216-.305.515-.528.853-.636a49.285 49.285 0 0 1 14.173-2.077m0-.709c-4.827.013-9.631.733-14.285 2.139h-.066c-.467.152-.879.46-1.178.88-.3.42-.472.933-.494 1.466v32.222c-.001.28.049.557.146.815.098.258.241.492.422.689.18.192.393.343.626.443.233.1.483.15.734.143h28.19a1.77 1.77 0 0 0 .742-.159c.235-.106.448-.263.628-.46a2.13 2.13 0 0 0 .417-.692c.095-.26.143-.536.14-.815V6.888a2.668 2.668 0 0 0-.468-1.54 2.428 2.428 0 0 0-1.192-.904h-.078a49.808 49.808 0 0 0-14.284-2.139z" fill="#56828F"/>
        <path d="M25.887 3.014A49.284 49.284 0 0 1 40.004 5.08c.366.1.69.334.919.662.229.329.349.733.34 1.147v32.125c.001.185-.03.37-.094.541a1.424 1.424 0 0 1-.277.46c-.12.132-.261.236-.418.308a1.184 1.184 0 0 1-.492.108h-28.19c-.17 0-.337-.037-.493-.108a1.284 1.284 0 0 1-.417-.308 1.425 1.425 0 0 1-.277-.46 1.525 1.525 0 0 1-.095-.541V6.79c.012-.386.135-.758.351-1.063.216-.305.515-.528.853-.636a49.285 49.285 0 0 1 14.173-2.077m0-.709c-4.827.013-9.631.733-14.285 2.139h-.066c-.467.152-.879.46-1.178.88-.3.42-.472.933-.494 1.466v32.222c-.001.28.049.557.146.815.098.258.241.492.422.689.18.192.393.343.626.443.233.1.483.15.734.143h28.19a1.77 1.77 0 0 0 .742-.159c.235-.106.448-.263.628-.46a2.13 2.13 0 0 0 .417-.692c.095-.26.143-.536.14-.815V6.888a2.668 2.668 0 0 0-.468-1.54 2.428 2.428 0 0 0-1.192-.904h-.078a49.808 49.808 0 0 0-14.284-2.139z" stroke="#56828F" stroke-width=".5" stroke-miterlimit="10"/>
        <path d="M37.853 10.101c-.348 0-.69-.113-.979-.326a1.904 1.904 0 0 1-.648-.868 2.105 2.105 0 0 1-.099-1.117c.07-.375.238-.72.485-.989.248-.27.563-.452.905-.525a1.617 1.617 0 0 1 1.018.115c.321.148.595.397.788.716.192.32.293.694.29 1.076-.002.51-.189.998-.519 1.357-.33.36-.776.561-1.24.561zm0-3.14c-.22 0-.436.072-.619.206a1.206 1.206 0 0 0-.41.548 1.332 1.332 0 0 0-.063.706c.042.237.149.455.304.626.156.17.355.287.571.334.216.048.44.023.644-.07.203-.092.377-.248.5-.45.122-.2.188-.436.188-.678 0-.324-.118-.635-.327-.864a1.067 1.067 0 0 0-.788-.358zM33.252 10.101c-.35.003-.691-.109-.983-.32a1.902 1.902 0 0 1-.653-.866 2.104 2.104 0 0 1-.103-1.118c.068-.375.236-.72.483-.991s.561-.455.904-.53a1.617 1.617 0 0 1 1.02.113c.322.148.596.397.789.717.193.32.294.694.292 1.077a2.028 2.028 0 0 1-.516 1.353c-.327.36-.77.562-1.233.566zm0-3.14c-.22 0-.436.072-.62.206a1.204 1.204 0 0 0-.41.548 1.331 1.331 0 0 0-.063.706c.043.237.149.455.305.626.156.17.354.287.57.334.216.048.44.023.644-.07.204-.092.378-.248.5-.45.123-.2.188-.436.188-.678 0-.324-.117-.635-.326-.864a1.067 1.067 0 0 0-.788-.358z" fill="#56828F" stroke="#56828F" stroke-width=".5" stroke-miterlimit="10"/>
        <path d="M37.085 12.63c.165 0 .33.034.483.103.154.069.293.17.41.299.117.128.21.281.273.45.063.168.094.348.093.53v9.03c0 .18-.033.36-.096.526a1.383 1.383 0 0 1-.274.446 1.246 1.246 0 0 1-.408.296 1.152 1.152 0 0 1-.481.1H14.689c-.332 0-.65-.143-.887-.4a1.45 1.45 0 0 1-.372-.968v-9.03c0-.367.132-.718.369-.977.236-.259.556-.404.89-.404h22.396m0-.709H14.689c-.506 0-.99.22-1.348.612a2.197 2.197 0 0 0-.558 1.478v9.03c.002.55.202 1.078.558 1.466.174.198.384.356.616.463.231.107.48.162.732.16h22.396c.5-.01.977-.233 1.33-.624.351-.39.55-.916.553-1.465v-9.03a2.202 2.202 0 0 0-.14-.802 2.046 2.046 0 0 0-1.036-1.13 1.75 1.75 0 0 0-.73-.158h.023z" fill="#56828F"/>
        <path d="M37.085 12.63c.165 0 .33.034.483.103.154.069.293.17.41.299.117.128.21.281.273.45.063.168.094.348.093.53v9.03c0 .18-.033.36-.096.526a1.383 1.383 0 0 1-.274.446 1.246 1.246 0 0 1-.408.296 1.152 1.152 0 0 1-.481.1H14.689c-.332 0-.65-.143-.887-.4a1.45 1.45 0 0 1-.372-.968v-9.03c0-.367.132-.718.369-.977.236-.259.556-.404.89-.404h22.396m0-.709H14.689c-.506 0-.99.22-1.348.612a2.197 2.197 0 0 0-.558 1.478v9.03c.002.55.202 1.078.558 1.466.174.198.384.356.616.463.231.107.48.162.732.16h22.396c.5-.01.977-.233 1.33-.624.351-.39.55-.916.553-1.465v-9.03a2.202 2.202 0 0 0-.14-.802 2.046 2.046 0 0 0-1.036-1.13 1.75 1.75 0 0 0-.73-.158h.023z" stroke="#56828F" stroke-width=".5" stroke-miterlimit="10"/>
        <path d="M18.533 10.101a1.65 1.65 0 0 1-.982-.32 1.901 1.901 0 0 1-.654-.866 2.103 2.103 0 0 1-.102-1.118c.067-.375.235-.72.482-.991s.561-.455.904-.53a1.617 1.617 0 0 1 1.02.113c.322.148.596.397.79.717.192.32.293.694.291 1.077a2.028 2.028 0 0 1-.515 1.353c-.328.36-.771.562-1.234.566zm0-3.14c-.22 0-.436.072-.62.206a1.204 1.204 0 0 0-.41.548 1.332 1.332 0 0 0-.063.706c.043.237.15.455.305.626.156.17.354.287.57.334.217.048.44.023.644-.07.204-.092.378-.248.5-.45.123-.2.188-.436.188-.678 0-.324-.117-.635-.326-.864a1.067 1.067 0 0 0-.788-.358zM13.886 10.101a1.65 1.65 0 0 1-.982-.32 1.901 1.901 0 0 1-.653-.866 2.104 2.104 0 0 1-.103-1.118c.068-.375.236-.72.482-.991.247-.271.562-.455.905-.53a1.617 1.617 0 0 1 1.02.113c.321.148.596.397.789.717.192.32.294.694.292 1.077a2.028 2.028 0 0 1-.516 1.353c-.327.36-.77.562-1.234.566zm0-3.14c-.22 0-.435.072-.619.206a1.206 1.206 0 0 0-.41.548 1.332 1.332 0 0 0-.063.706c.043.237.149.455.305.626.155.17.354.287.57.334.216.048.44.023.644-.07.203-.092.377-.248.5-.45.122-.2.188-.436.188-.678 0-.324-.118-.635-.327-.864a1.067 1.067 0 0 0-.788-.358zM14.666 38.316a1.4 1.4 0 0 1-.83-.276 1.614 1.614 0 0 1-.549-.735 1.785 1.785 0 0 1-.085-.946c.058-.318.2-.61.409-.838.208-.23.474-.385.764-.448.29-.063.59-.031.863.093s.506.334.67.603c.164.27.252.586.252.91 0 .434-.158.85-.438 1.157-.28.308-.66.48-1.056.48zm0-2.566a.795.795 0 0 0-.47.156.916.916 0 0 0-.312.417c-.064.17-.08.357-.048.537a.96.96 0 0 0 .232.475c.118.13.269.219.433.254a.777.777 0 0 0 .49-.052.869.869 0 0 0 .38-.343.994.994 0 0 0 .142-.515.976.976 0 0 0-.248-.657.811.811 0 0 0-.599-.272zM14.822 34.027a2.667 2.667 0 0 1-1.578-.525 3.072 3.072 0 0 1-1.046-1.399 3.397 3.397 0 0 1-.162-1.8c.11-.604.38-1.16.777-1.595a2.773 2.773 0 0 1 1.455-.853 2.61 2.61 0 0 1 1.642.177c.519.236.963.636 1.275 1.148.312.512.479 1.115.479 1.731 0 .826-.3 1.619-.833 2.203-.532.585-1.255.913-2.008.913zm0-5.523c-.44 0-.871.143-1.238.412-.366.268-.652.65-.82 1.096a2.664 2.664 0 0 0-.127 1.412c.086.474.298.91.61 1.252.311.342.708.574 1.14.669.433.094.881.046 1.288-.14a2.288 2.288 0 0 0 1-.9c.245-.401.376-.874.376-1.357 0-.648-.235-1.27-.653-1.728a2.134 2.134 0 0 0-1.575-.716zM24.605 36.679H19.57a.299.299 0 0 1-.22-.1.36.36 0 0 1 0-.48.3.3 0 0 1 .102-.071.278.278 0 0 1 .118-.021h5.036c.08 0 .157.034.213.096a.361.361 0 0 1 0 .471.3.3 0 0 1-.213.105zM24.594 34.48H19.57c-.172 0-.312.15-.312.335 0 .186.14.336.312.336h5.025c.172 0 .312-.15.312-.336 0-.185-.14-.336-.312-.336zM24.906 33.306a.347.347 0 0 1-.088.233.288.288 0 0 1-.213.097H19.57a.278.278 0 0 1-.118-.022.3.3 0 0 1-.102-.07.356.356 0 0 1-.092-.238.359.359 0 0 1 .088-.246.301.301 0 0 1 .103-.074.277.277 0 0 1 .121-.022h5.036c.04 0 .08.009.118.026.037.017.071.043.1.075a.358.358 0 0 1 .084.241zM24.605 32.12H19.57a.285.285 0 0 1-.136-.004.304.304 0 0 1-.121-.068.34.34 0 0 1-.084-.118.369.369 0 0 1 .084-.409.303.303 0 0 1 .12-.068.285.285 0 0 1 .137-.004h5.036a.308.308 0 0 1 .182.118.363.363 0 0 1 .072.218c0 .08-.026.156-.072.218a.308.308 0 0 1-.182.118zM24.594 29.921H19.57c-.172 0-.312.15-.312.336 0 .186.14.336.312.336h5.025c.172 0 .312-.15.312-.336 0-.185-.14-.336-.312-.336zM32.215 36.679H27.18a.299.299 0 0 1-.22-.1.36.36 0 0 1 0-.48.3.3 0 0 1 .102-.071.278.278 0 0 1 .118-.021h5.037c.08 0 .156.034.212.096a.361.361 0 0 1 0 .471.3.3 0 0 1-.212.105zM32.204 34.48H27.18c-.172 0-.312.15-.312.335 0 .186.14.336.312.336h5.025c.173 0 .312-.15.312-.336 0-.185-.14-.336-.312-.336zM32.516 33.306a.347.347 0 0 1-.088.233.288.288 0 0 1-.213.097H27.18a.278.278 0 0 1-.118-.022.3.3 0 0 1-.102-.07.356.356 0 0 1-.092-.238.359.359 0 0 1 .088-.246.3.3 0 0 1 .103-.074.278.278 0 0 1 .121-.022h5.036c.04 0 .08.009.118.026.037.017.071.043.1.075a.358.358 0 0 1 .084.241zM32.215 32.12H27.18a.285.285 0 0 1-.136-.004.304.304 0 0 1-.121-.068.34.34 0 0 1-.084-.118.369.369 0 0 1 .084-.409.303.303 0 0 1 .121-.068.285.285 0 0 1 .136-.004h5.036a.308.308 0 0 1 .182.118.363.363 0 0 1 .072.218c0 .08-.026.156-.072.218a.308.308 0 0 1-.182.118zM32.204 29.921H27.18c-.172 0-.312.15-.312.336 0 .186.14.336.312.336h5.025c.173 0 .312-.15.312-.336 0-.185-.14-.336-.312-.336zM36.95 38.316a1.4 1.4 0 0 1-.829-.276 1.614 1.614 0 0 1-.55-.735 1.784 1.784 0 0 1-.084-.946c.057-.318.2-.61.408-.838.209-.23.475-.385.764-.448.29-.063.59-.031.863.093s.506.334.67.603c.164.27.252.586.252.91 0 .434-.157.85-.437 1.157-.28.308-.66.48-1.056.48zm0-2.566a.795.795 0 0 0-.47.156.916.916 0 0 0-.311.417c-.065.17-.081.357-.049.537a.96.96 0 0 0 .232.475c.119.13.27.219.434.254a.777.777 0 0 0 .489-.052.868.868 0 0 0 .38-.343.993.993 0 0 0 .143-.515.976.976 0 0 0-.248-.657.811.811 0 0 0-.6-.272zM36.95 34.027a2.668 2.668 0 0 1-1.575-.531 3.075 3.075 0 0 1-1.041-1.401 3.397 3.397 0 0 1-.157-1.8c.11-.603.382-1.157.78-1.592.398-.434.904-.73 1.455-.849a2.61 2.61 0 0 1 1.64.18c.518.236.962.635 1.273 1.147a3.38 3.38 0 0 1 .26 2.925 3.15 3.15 0 0 1-.618 1.013c-.265.29-.58.518-.925.674a2.624 2.624 0 0 1-1.091.234zm0-5.523c-.44 0-.87.143-1.237.412a2.41 2.41 0 0 0-.821 1.096 2.664 2.664 0 0 0-.127 1.412c.086.474.298.91.61 1.252.312.341.709.574 1.141.669.432.094.88.046 1.288-.14a2.286 2.286 0 0 0 1-.9c.245-.401.375-.874.375-1.357 0-.649-.235-1.27-.652-1.728a2.134 2.134 0 0 0-1.576-.716z" fill="#56828F" stroke="#56828F" stroke-width=".5" stroke-miterlimit="10"/>
    </g>
    <defs>
        <clipPath id="4v9g1t0mda">
            <path fill="#fff" transform="translate(3.313 2)" d="M0 0h45.271v43H0z"/>
        </clipPath>
    </defs>
</svg>
